{"glyphs":{"0":{"ha":1303,"x_min":0,"x_max":0,"o":"m 651 944 b 58 465 257 944 58 797 b 651 -15 58 133 257 -15 b 1244 465 1046 -15 1244 133 b 651 944 1244 797 1046 944 z m 651 226 b 342 465 424 226 342 265 b 651 703 342 665 424 703 b 961 465 879 703 961 665 b 651 226 961 265 879 226 z "},"1":{"ha":619,"x_min":0,"x_max":0,"o":"m 17 688 l 243 688 l 243 0 l 531 0 l 531 929 l 190 929 z "},"2":{"ha":1299,"x_min":0,"x_max":0,"o":"m 106 688 l 857 688 b 956 624 924 688 956 671 b 857 558 956 576 924 558 l 415 558 b 67 304 189 558 67 474 l 67 0 l 1056 0 l 1240 239 l 344 239 l 344 307 b 443 374 344 354 376 374 l 885 374 b 1233 640 1124 374 1233 481 b 835 929 1233 815 1117 929 l 290 929 z "},"3":{"ha":1265,"x_min":0,"x_max":0,"o":"m 13 0 l 831 0 b 1208 271 1124 0 1208 117 b 1063 478 1208 382 1143 454 b 1189 672 1126 501 1189 563 b 824 929 1189 843 1046 929 l 243 929 l 58 688 l 836 688 b 917 628 876 688 917 674 b 836 565 917 581 878 565 l 424 565 l 275 367 l 832 367 b 921 304 894 367 921 344 b 832 239 921 261 894 239 l 196 239 z "},"4":{"ha":1333,"x_min":0,"x_max":0,"o":"m 785 111 l 785 0 l 1060 0 l 1060 111 l 1157 111 l 1325 339 l 1060 339 l 1060 771 b 901 944 1060 894 985 944 b 771 894 868 944 817 932 l 100 350 b 40 236 58 315 40 275 b 179 111 40 171 93 111 z m 785 339 l 619 339 b 461 333 551 339 500 338 b 586 428 496 356 535 386 l 689 510 b 790 599 735 547 767 575 b 785 478 786 567 785 533 z "},"5":{"ha":1249,"x_min":0,"x_max":0,"o":"m 107 929 l 107 374 l 815 374 b 914 307 882 374 914 354 b 815 239 914 258 882 239 l 243 239 l 58 0 l 793 0 b 1190 304 1075 0 1190 114 b 843 558 1190 474 1068 558 l 392 558 l 392 688 l 972 688 l 1158 929 z "},"6":{"ha":1349,"x_min":0,"x_max":0,"o":"m 604 688 l 1032 688 l 1217 929 l 618 929 b 58 474 296 929 58 746 b 710 -15 58 135 282 -15 b 1290 301 1011 -15 1290 46 b 943 558 1290 469 1154 558 l 356 558 b 604 688 399 638 490 688 z m 921 374 b 1019 310 989 374 1019 354 b 726 226 1019 257 965 226 b 356 374 510 226 390 250 z "},"7":{"ha":1174,"x_min":0,"x_max":0,"o":"m 1115 699 b 1161 806 1149 738 1161 772 b 1003 929 1161 872 1108 929 l 200 929 l 17 688 l 521 688 b 783 694 667 688 731 690 b 613 513 747 663 708 621 l 157 0 l 519 0 z "},"8":{"ha":1324,"x_min":0,"x_max":0,"o":"m 889 0 b 1265 271 1182 0 1265 117 b 1119 478 1265 382 1201 454 b 1247 672 1185 501 1247 563 b 882 929 1247 843 1104 929 l 442 929 b 76 672 219 929 76 843 b 204 478 76 563 139 501 b 58 271 122 454 58 382 b 435 0 58 117 142 0 z m 890 367 b 979 304 951 367 979 344 b 890 239 979 261 951 239 l 433 239 b 344 304 372 239 344 261 b 433 367 344 344 372 367 z m 894 688 b 974 628 935 688 974 674 b 894 565 974 581 936 565 l 429 565 b 350 628 388 565 350 581 b 429 688 350 674 389 688 z "},"9":{"ha":1349,"x_min":0,"x_max":0,"o":"m 331 239 l 144 0 l 731 0 b 1290 485 1053 0 1290 183 b 639 944 1290 794 1067 944 b 58 628 338 944 58 883 b 406 371 58 460 194 371 b 993 392 863 371 925 381 b 744 239 953 308 869 239 z m 428 556 b 329 619 360 556 329 576 b 622 703 329 674 383 703 b 993 569 839 703 964 688 b 428 556 910 560 854 556 z "},"\u0017":{"ha":532,"x_min":0,"x_max":0,"o":""}," ":{"ha":532,"x_min":0,"x_max":0,"o":""},"!":{"ha":451,"x_min":0,"x_max":0,"o":"m 82 929 l 82 619 l 113 346 l 338 346 l 369 619 l 369 929 z m 72 118 b 229 -15 72 33 142 -15 b 385 118 315 -15 385 33 b 229 254 385 204 315 254 b 72 118 142 254 72 204 z "},"\"":{"ha":619,"x_min":0,"x_max":0,"o":"m 24 929 l 108 557 l 196 557 l 281 929 z m 339 929 l 424 557 l 511 557 l 596 929 z "},"#":{"ha":929,"x_min":0,"x_max":0,"o":"m 757 738 l 817 929 l 658 929 l 600 738 l 493 738 l 551 929 l 394 929 l 335 738 l 201 738 l 139 538 l 274 538 l 238 419 l 103 419 l 40 221 l 176 221 l 110 0 l 267 0 l 333 221 l 442 221 l 374 0 l 532 0 l 600 221 l 746 221 l 807 419 l 660 419 l 697 538 l 843 538 l 904 738 z m 503 419 l 396 419 l 431 538 l 539 538 z "},"$":{"ha":940,"x_min":0,"x_max":0,"o":"m 533 929 l 419 929 l 419 806 l 354 806 b 72 601 154 806 72 725 b 318 413 72 489 150 413 l 419 413 l 419 318 l 181 318 l 49 150 l 419 150 l 419 0 l 533 0 l 533 150 l 603 150 b 885 364 803 150 885 231 b 639 544 885 483 797 544 l 533 544 l 533 635 l 736 635 l 868 806 l 533 806 z m 619 413 b 689 365 667 413 689 400 b 619 318 689 332 667 318 l 533 318 l 533 413 z m 338 544 b 268 590 290 544 268 556 b 338 635 268 624 290 635 l 419 635 l 419 544 z "},"%":{"ha":1399,"x_min":0,"x_max":0,"o":"m 356 961 b 58 722 157 961 58 888 b 356 482 58 556 157 482 b 651 722 553 482 651 556 b 356 961 651 888 553 961 z m 356 603 b 200 722 242 603 200 622 b 356 840 200 822 242 840 b 510 722 468 840 510 822 b 356 603 510 622 468 603 z m 1010 981 l 260 -53 l 386 -53 l 1126 981 z m 1044 458 b 747 219 846 458 747 385 b 1044 -21 747 53 846 -21 b 1340 219 1242 -21 1340 53 b 1044 458 1340 385 1242 458 z m 1044 100 b 889 219 931 100 889 119 b 1044 338 889 319 931 338 b 1199 219 1157 338 1199 319 b 1044 100 1199 119 1157 100 z "},"&":{"ha":1213,"x_min":0,"x_max":0,"o":"m 1200 239 l 882 239 l 882 367 l 1035 367 l 1183 565 l 429 565 b 350 628 388 565 350 581 b 429 688 350 674 389 688 l 646 688 l 831 929 l 442 929 b 76 672 219 929 76 843 b 204 478 76 563 139 501 b 58 271 122 454 58 382 b 435 0 58 117 142 0 l 1017 0 z m 344 304 b 433 367 344 344 372 367 l 650 367 l 650 239 l 433 239 b 344 304 372 239 344 261 z "},"'":{"ha":304,"x_min":0,"x_max":0,"o":"m 24 929 l 108 557 l 196 557 l 281 929 z "},"(":{"ha":488,"x_min":0,"x_max":0,"o":"m 271 1101 b 121 464 169 869 121 671 b 274 -179 121 258 167 57 l 429 -179 b 263 463 310 75 263 278 b 429 1101 263 649 317 849 z "},")":{"ha":488,"x_min":0,"x_max":0,"o":"m 60 1101 b 225 463 171 849 225 649 b 58 -179 225 278 175 75 l 214 -179 b 367 464 321 57 367 258 b 217 1101 367 671 318 869 z "},"*":{"ha":644,"x_min":0,"x_max":0,"o":"m 58 694 l 226 639 l 124 497 l 218 426 l 322 569 l 428 428 l 524 496 l 419 639 l 586 694 l 551 807 l 382 751 l 382 929 l 263 929 l 263 751 l 96 806 z "},"+":{"ha":874,"x_min":0,"x_max":0,"o":"m 817 550 l 514 550 l 514 850 l 358 850 l 358 550 l 58 550 l 58 394 l 358 394 l 358 92 l 514 92 l 514 394 l 817 394 z "},",":{"ha":404,"x_min":0,"x_max":0,"o":"m 67 239 l 67 -133 l 226 -133 l 363 239 z "},"-":{"ha":644,"x_min":0,"x_max":0,"o":"m 161 560 l 21 381 l 485 381 l 625 560 z "},".":{"ha":429,"x_min":0,"x_max":0,"o":"m 58 118 b 214 -15 58 33 128 -15 b 371 118 301 -15 371 33 b 214 254 371 204 301 254 b 58 118 128 254 58 204 z "},"/":{"ha":656,"x_min":0,"x_max":0,"o":"m 486 981 l 0 -53 l 179 -53 l 656 981 z "},":":{"ha":511,"x_min":0,"x_max":0,"o":"m 94 118 b 251 -15 94 33 164 -15 b 407 118 338 -15 407 33 b 251 254 407 204 338 254 b 94 118 164 254 94 204 z m 94 568 b 251 433 94 482 164 433 b 407 568 338 433 407 482 b 251 703 407 653 338 703 b 94 568 164 703 94 653 z "},";":{"ha":429,"x_min":0,"x_max":0,"o":"m 81 239 l 81 -133 l 239 -133 l 376 239 z m 64 568 b 221 433 64 482 135 433 b 378 568 307 433 378 482 b 221 703 378 653 307 703 b 64 568 135 703 64 653 z "},"<":{"ha":849,"x_min":0,"x_max":0,"o":"m 792 244 l 307 468 l 792 693 l 792 863 l 108 543 b 58 468 74 526 58 499 b 108 394 58 439 74 410 l 792 75 z "},"=":{"ha":874,"x_min":0,"x_max":0,"o":"m 817 365 l 58 365 l 58 210 l 817 210 z m 817 733 l 58 733 l 58 578 l 817 578 z "},">":{"ha":849,"x_min":0,"x_max":0,"o":"m 58 75 l 742 394 b 792 468 775 410 792 439 b 742 543 792 499 775 526 l 58 863 l 58 693 l 543 468 l 58 244 z "},"?":{"ha":1032,"x_min":0,"x_max":0,"o":"m 17 688 l 619 688 b 718 624 686 688 718 671 b 619 558 718 576 686 558 l 460 558 b 242 375 301 558 242 492 l 242 346 l 479 346 l 479 351 b 507 374 479 365 488 374 l 647 374 b 994 640 886 374 994 481 b 597 929 994 815 879 929 l 203 929 z m 215 118 b 372 -15 215 33 285 -15 b 528 118 458 -15 528 33 b 372 254 528 204 458 254 b 215 118 285 254 215 204 z "},"@":{"ha":1267,"x_min":0,"x_max":0,"o":"m 1181 929 l 621 929 b 58 454 300 929 58 726 b 621 0 58 181 293 0 l 1157 0 l 1038 154 l 621 154 b 243 468 403 154 243 285 b 621 775 243 651 406 775 l 994 775 l 994 381 l 893 381 l 893 674 l 588 674 b 365 463 450 674 365 581 b 588 250 365 344 453 250 l 1181 250 z m 639 381 b 538 468 579 381 538 415 b 639 554 538 517 579 554 l 732 554 l 732 381 z "},"A":{"ha":1576,"x_min":0,"x_max":0,"o":"m 1561 0 l 981 840 b 797 944 940 899 883 944 b 611 840 707 944 650 894 l 15 0 l 356 0 l 792 617 l 958 371 b 1053 236 989 326 1028 269 b 888 239 1008 239 943 239 l 654 239 l 481 0 z "},"B":{"ha":1339,"x_min":0,"x_max":0,"o":"m 1136 478 b 1263 672 1200 501 1263 563 b 897 929 1263 843 1119 929 l 282 929 l 88 688 l 910 688 b 990 628 950 688 990 674 b 910 565 990 581 951 565 l 88 565 l 88 0 l 904 0 b 1282 271 1197 0 1282 117 b 1136 478 1282 382 1217 454 z m 906 367 b 994 304 968 367 994 344 b 906 239 994 261 968 239 l 376 239 l 376 367 z "},"C":{"ha":1282,"x_min":0,"x_max":0,"o":"m 618 239 b 346 461 461 239 346 329 b 618 688 346 594 463 688 l 1085 688 l 1269 929 l 618 929 b 58 474 296 929 58 746 b 618 0 58 204 296 0 l 1085 0 l 1269 239 z "},"D":{"ha":1328,"x_min":0,"x_max":0,"o":"m 1269 474 b 710 929 1269 742 1035 929 l 271 929 l 88 688 l 710 688 b 985 461 865 688 985 592 b 710 239 985 328 869 239 l 376 239 l 376 579 l 88 579 l 88 0 l 710 0 b 1269 474 1032 0 1269 204 z "},"E":{"ha":1178,"x_min":0,"x_max":0,"o":"m 376 239 l 376 365 l 947 365 l 1113 576 l 376 576 l 376 688 l 978 688 l 1164 929 l 88 929 l 88 0 l 982 0 l 1167 239 z "},"F":{"ha":1139,"x_min":0,"x_max":0,"o":"m 88 929 l 88 0 l 376 0 l 376 340 l 901 340 l 1076 567 l 376 567 l 376 688 l 943 688 l 1129 929 z "},"G":{"ha":1333,"x_min":0,"x_max":0,"o":"m 489 374 l 969 374 l 969 239 l 618 239 b 344 461 458 239 344 326 b 618 688 344 593 463 688 l 1097 688 l 1283 929 l 618 929 b 58 474 296 929 58 746 b 618 0 58 204 296 0 l 1256 0 l 1256 581 l 661 581 z "},"H":{"ha":1304,"x_min":0,"x_max":0,"o":"m 1215 929 l 929 929 l 929 600 l 376 600 l 376 929 l 88 929 l 88 0 l 376 0 l 376 358 l 929 358 l 929 0 l 1215 0 z "},"I":{"ha":471,"x_min":0,"x_max":0,"o":"m 379 929 l 92 929 l 92 0 l 379 0 z "},"J":{"ha":1017,"x_min":0,"x_max":0,"o":"m 203 239 l 15 0 l 363 0 b 943 422 749 0 943 140 l 943 929 l 654 929 l 654 422 b 363 239 654 289 582 239 z "},"K":{"ha":1267,"x_min":0,"x_max":0,"o":"m 875 307 b 631 492 756 404 683 456 b 871 663 690 528 747 569 l 1226 929 l 810 929 l 542 703 b 371 551 457 632 407 585 b 376 714 374 600 376 657 l 376 929 l 88 929 l 88 0 l 376 0 l 376 267 b 372 400 376 311 374 357 b 544 244 404 368 449 328 l 825 0 l 1260 0 z "},"L":{"ha":1103,"x_min":0,"x_max":0,"o":"m 375 239 l 375 929 l 88 929 l 88 0 l 908 0 l 1094 239 z "},"M":{"ha":1749,"x_min":0,"x_max":0,"o":"m 581 846 b 424 944 547 907 497 944 b 261 817 351 944 286 903 l 21 0 l 303 0 l 390 324 b 453 579 418 428 439 506 b 583 324 482 517 515 451 l 708 89 b 874 -15 757 -3 804 -15 b 1039 89 943 -15 990 -3 l 1164 322 b 1293 579 1228 443 1263 514 b 1357 324 1308 504 1328 429 l 1444 0 l 1731 0 l 1496 817 b 1335 944 1471 903 1407 944 b 1176 846 1260 944 1210 906 l 1028 582 b 879 306 946 439 910 371 b 729 583 847 371 811 440 z "},"N":{"ha":1269,"x_min":0,"x_max":0,"o":"m 1029 -15 b 1188 160 1113 -15 1188 36 l 1188 929 l 925 929 l 925 383 l 356 894 b 240 944 310 936 275 944 b 83 771 158 944 83 894 l 83 0 l 344 0 l 344 546 l 914 35 b 1029 -15 958 -7 993 -15 z "},"O":{"ha":1475,"x_min":0,"x_max":0,"o":"m 738 944 b 58 465 285 944 58 797 b 738 -15 58 133 285 -15 b 1417 465 1189 -15 1417 133 b 738 944 1417 797 1189 944 z m 738 226 b 344 465 449 226 344 265 b 738 703 344 665 449 703 b 1131 465 1026 703 1131 665 b 738 226 1131 265 1026 226 z "},"P":{"ha":1372,"x_min":0,"x_max":0,"o":"m 1314 581 b 858 929 1314 788 1146 929 l 275 929 l 85 688 l 885 688 b 1025 582 974 688 1025 647 b 885 475 1025 518 974 475 l 85 475 l 85 0 l 371 0 l 371 238 l 857 238 b 1314 581 1146 238 1314 375 z "},"Q":{"ha":1475,"x_min":0,"x_max":0,"o":"m 949 399 l 574 399 l 692 307 b 792 235 724 282 764 253 b 679 239 758 238 717 239 l 619 239 b 344 465 449 239 344 293 b 738 703 344 665 449 703 b 1131 465 1026 703 1131 665 b 1068 310 1131 396 1113 343 l 1376 310 b 1417 465 1403 353 1417 407 b 738 944 1417 797 1189 944 b 58 465 285 944 58 797 b 619 0 58 160 304 0 l 1433 0 z "},"R":{"ha":1421,"x_min":0,"x_max":0,"o":"m 1235 181 b 1104 303 1171 246 1136 279 b 1347 597 1257 333 1347 453 b 869 929 1347 863 1081 929 l 272 929 l 85 688 l 893 688 b 1051 579 992 688 1051 651 b 893 475 1051 515 982 475 l 85 475 l 85 0 l 372 0 l 372 246 l 814 246 l 1021 0 l 1406 0 z "},"S":{"ha":1338,"x_min":0,"x_max":0,"o":"m 443 558 b 344 624 376 558 344 576 b 443 688 344 671 376 688 l 1088 688 l 1272 929 l 465 929 b 67 640 183 929 67 815 b 415 374 67 481 176 374 l 921 374 b 1019 307 989 374 1019 354 b 921 239 1019 258 989 239 l 218 239 l 33 0 l 899 0 b 1297 304 1182 0 1297 114 b 949 558 1297 474 1175 558 z "},"T":{"ha":1242,"x_min":0,"x_max":0,"o":"m 186 929 l 0 688 l 436 688 l 436 0 l 724 0 l 724 688 l 1056 688 l 1242 929 z "},"U":{"ha":1369,"x_min":0,"x_max":0,"o":"m 1294 929 l 1006 929 l 1006 406 b 715 224 1006 275 936 224 b 361 406 419 224 361 268 l 361 929 l 75 929 l 75 406 b 715 -15 75 125 268 -15 b 1294 406 1101 -15 1294 125 z "},"V":{"ha":1576,"x_min":0,"x_max":0,"o":"m 15 929 l 597 89 b 781 -15 638 31 694 -15 b 967 89 869 -15 926 35 l 1561 929 l 1222 929 l 786 313 l 368 929 z "},"W":{"ha":1750,"x_min":0,"x_max":0,"o":"m 1168 83 b 1326 -15 1203 22 1253 -15 b 1488 113 1399 -15 1463 26 l 1728 929 l 1447 929 l 1360 606 b 1296 350 1332 503 1311 424 b 1165 606 1267 413 1235 478 l 1042 840 b 875 944 993 932 944 944 b 711 840 807 944 760 932 l 586 607 b 456 350 522 486 486 415 b 393 606 442 425 422 501 l 306 929 l 18 929 l 254 113 b 415 -15 279 26 343 -15 b 574 83 490 -15 540 24 l 722 347 b 869 625 803 490 840 558 b 1019 346 901 558 939 489 z "},"X":{"ha":1444,"x_min":0,"x_max":0,"o":"m 1035 929 l 736 640 l 440 929 l 42 929 l 326 663 b 543 469 472 526 508 494 b 326 279 508 443 468 410 l 24 0 l 381 0 l 707 307 l 1024 0 l 1429 0 l 1132 279 b 907 481 982 419 940 458 b 1114 661 942 507 985 544 l 1407 929 z "},"Y":{"ha":1428,"x_min":0,"x_max":0,"o":"m 1057 929 l 846 672 b 729 525 779 592 747 551 b 603 671 710 553 632 638 l 381 929 l 11 929 l 578 308 l 578 0 l 867 0 l 867 307 l 1418 929 z "},"Z":{"ha":1249,"x_min":0,"x_max":0,"o":"m 1238 239 l 900 239 b 531 233 754 239 576 236 b 783 426 567 258 631 306 l 1126 699 b 1189 813 1165 728 1189 771 b 1056 929 1189 888 1128 929 l 199 929 l 15 688 l 388 688 b 707 693 572 688 657 689 b 451 499 672 668 606 622 l 113 232 b 50 117 74 201 50 160 b 183 0 50 42 111 0 l 1064 0 z "},"[":{"ha":442,"x_min":0,"x_max":0,"o":"m 376 1101 l 110 1101 l 110 -179 l 376 -179 l 376 -12 l 278 -12 l 278 933 l 376 933 z "},"\\":{"ha":656,"x_min":0,"x_max":0,"o":"m 0 981 l 476 -53 l 656 -53 l 168 981 z "},"]":{"ha":443,"x_min":0,"x_max":0,"o":"m 331 1101 l 65 1101 l 65 933 l 164 933 l 164 -12 l 65 -12 l 65 -179 l 331 -179 z "},"^":{"ha":796,"x_min":0,"x_max":0,"o":"m 510 929 l 283 929 l 61 411 l 256 411 l 400 771 l 544 411 l 732 411 z "},"_":{"ha":936,"x_min":0,"x_max":0,"o":"m 943 -58 l 0 -58 l 0 -183 l 943 -183 z "},"`":{"ha":546,"x_min":0,"x_max":0,"o":"m 440 1108 l 26 1204 l 26 1047 l 440 993 z "},"a":{"ha":1576,"x_min":0,"x_max":0,"o":"m 1561 0 l 981 840 b 797 944 940 899 883 944 b 611 840 707 944 650 894 l 15 0 l 356 0 l 792 617 l 958 371 b 1053 236 989 326 1028 269 b 888 239 1008 239 943 239 l 654 239 l 481 0 z "},"b":{"ha":1339,"x_min":0,"x_max":0,"o":"m 1136 478 b 1263 672 1200 501 1263 563 b 897 929 1263 843 1119 929 l 282 929 l 88 688 l 910 688 b 990 628 950 688 990 674 b 910 565 990 581 951 565 l 88 565 l 88 0 l 904 0 b 1282 271 1197 0 1282 117 b 1136 478 1282 382 1217 454 z m 906 367 b 994 304 968 367 994 344 b 906 239 994 261 968 239 l 376 239 l 376 367 z "},"c":{"ha":1282,"x_min":0,"x_max":0,"o":"m 618 239 b 346 461 461 239 346 329 b 618 688 346 594 463 688 l 1085 688 l 1269 929 l 618 929 b 58 474 296 929 58 746 b 618 0 58 204 296 0 l 1085 0 l 1269 239 z "},"d":{"ha":1328,"x_min":0,"x_max":0,"o":"m 1269 474 b 710 929 1269 742 1035 929 l 271 929 l 88 688 l 710 688 b 985 461 865 688 985 592 b 710 239 985 328 869 239 l 376 239 l 376 579 l 88 579 l 88 0 l 710 0 b 1269 474 1032 0 1269 204 z "},"e":{"ha":1178,"x_min":0,"x_max":0,"o":"m 376 239 l 376 365 l 947 365 l 1113 576 l 376 576 l 376 688 l 978 688 l 1164 929 l 88 929 l 88 0 l 982 0 l 1167 239 z "},"f":{"ha":1139,"x_min":0,"x_max":0,"o":"m 88 929 l 88 0 l 376 0 l 376 340 l 901 340 l 1076 567 l 376 567 l 376 688 l 943 688 l 1129 929 z "},"g":{"ha":1333,"x_min":0,"x_max":0,"o":"m 489 374 l 969 374 l 969 239 l 618 239 b 344 461 458 239 344 326 b 618 688 344 593 463 688 l 1097 688 l 1283 929 l 618 929 b 58 474 296 929 58 746 b 618 0 58 204 296 0 l 1256 0 l 1256 581 l 661 581 z "},"h":{"ha":1304,"x_min":0,"x_max":0,"o":"m 1215 929 l 929 929 l 929 600 l 376 600 l 376 929 l 88 929 l 88 0 l 376 0 l 376 358 l 929 358 l 929 0 l 1215 0 z "},"i":{"ha":471,"x_min":0,"x_max":0,"o":"m 379 929 l 92 929 l 92 0 l 379 0 z "},"j":{"ha":1017,"x_min":0,"x_max":0,"o":"m 203 239 l 15 0 l 363 0 b 943 422 749 0 943 140 l 943 929 l 654 929 l 654 422 b 363 239 654 289 582 239 z "},"k":{"ha":1267,"x_min":0,"x_max":0,"o":"m 875 307 b 631 492 756 404 683 456 b 871 663 690 528 747 569 l 1226 929 l 810 929 l 542 703 b 371 551 457 632 407 585 b 376 714 374 600 376 657 l 376 929 l 88 929 l 88 0 l 376 0 l 376 267 b 372 400 376 311 374 357 b 544 244 404 368 449 328 l 825 0 l 1260 0 z "},"l":{"ha":1103,"x_min":0,"x_max":0,"o":"m 375 239 l 375 929 l 88 929 l 88 0 l 908 0 l 1094 239 z "},"m":{"ha":1749,"x_min":0,"x_max":0,"o":"m 581 846 b 424 944 547 907 497 944 b 261 817 351 944 286 903 l 21 0 l 303 0 l 390 324 b 453 579 418 428 439 506 b 583 324 482 517 515 451 l 708 89 b 874 -15 757 -3 804 -15 b 1039 89 943 -15 990 -3 l 1164 322 b 1293 579 1228 443 1263 514 b 1357 324 1308 504 1328 429 l 1444 0 l 1731 0 l 1496 817 b 1335 944 1471 903 1407 944 b 1176 846 1260 944 1210 906 l 1028 582 b 879 306 946 439 910 371 b 729 583 847 371 811 440 z "},"n":{"ha":1269,"x_min":0,"x_max":0,"o":"m 1029 -15 b 1188 160 1113 -15 1188 36 l 1188 929 l 925 929 l 925 383 l 356 894 b 240 944 310 936 275 944 b 83 771 158 944 83 894 l 83 0 l 344 0 l 344 546 l 914 35 b 1029 -15 958 -7 993 -15 z "},"o":{"ha":1475,"x_min":0,"x_max":0,"o":"m 738 944 b 58 465 285 944 58 797 b 738 -15 58 133 285 -15 b 1417 465 1189 -15 1417 133 b 738 944 1417 797 1189 944 z m 738 226 b 344 465 449 226 344 265 b 738 703 344 665 449 703 b 1131 465 1026 703 1131 665 b 738 226 1131 265 1026 226 z "},"p":{"ha":1372,"x_min":0,"x_max":0,"o":"m 1314 581 b 858 929 1314 788 1146 929 l 275 929 l 85 688 l 885 688 b 1025 582 974 688 1025 647 b 885 475 1025 518 974 475 l 85 475 l 85 0 l 371 0 l 371 238 l 857 238 b 1314 581 1146 238 1314 375 z "},"q":{"ha":1475,"x_min":0,"x_max":0,"o":"m 949 399 l 574 399 l 692 307 b 792 235 724 282 764 253 b 679 239 758 238 717 239 l 619 239 b 344 465 449 239 344 293 b 738 703 344 665 449 703 b 1131 465 1026 703 1131 665 b 1068 310 1131 396 1113 343 l 1376 310 b 1417 465 1403 353 1417 407 b 738 944 1417 797 1189 944 b 58 465 285 944 58 797 b 619 0 58 160 304 0 l 1433 0 z "},"r":{"ha":1421,"x_min":0,"x_max":0,"o":"m 1235 181 b 1104 303 1171 246 1136 279 b 1347 597 1257 333 1347 453 b 869 929 1347 863 1081 929 l 272 929 l 85 688 l 893 688 b 1051 579 992 688 1051 651 b 893 475 1051 515 982 475 l 85 475 l 85 0 l 372 0 l 372 246 l 814 246 l 1021 0 l 1406 0 z "},"s":{"ha":1338,"x_min":0,"x_max":0,"o":"m 443 558 b 344 624 376 558 344 576 b 443 688 344 671 376 688 l 1088 688 l 1272 929 l 465 929 b 67 640 183 929 67 815 b 415 374 67 481 176 374 l 921 374 b 1019 307 989 374 1019 354 b 921 239 1019 258 989 239 l 218 239 l 33 0 l 899 0 b 1297 304 1182 0 1297 114 b 949 558 1297 474 1175 558 z "},"t":{"ha":1242,"x_min":0,"x_max":0,"o":"m 186 929 l 0 688 l 436 688 l 436 0 l 724 0 l 724 688 l 1056 688 l 1242 929 z "},"u":{"ha":1369,"x_min":0,"x_max":0,"o":"m 1294 929 l 1006 929 l 1006 406 b 715 224 1006 275 936 224 b 361 406 419 224 361 268 l 361 929 l 75 929 l 75 406 b 715 -15 75 125 268 -15 b 1294 406 1101 -15 1294 125 z "},"v":{"ha":1576,"x_min":0,"x_max":0,"o":"m 15 929 l 597 89 b 781 -15 638 31 694 -15 b 967 89 869 -15 926 35 l 1561 929 l 1222 929 l 786 313 l 368 929 z "},"w":{"ha":1750,"x_min":0,"x_max":0,"o":"m 1168 83 b 1326 -15 1203 22 1253 -15 b 1488 113 1399 -15 1463 26 l 1728 929 l 1447 929 l 1360 606 b 1296 350 1332 503 1311 424 b 1165 606 1267 413 1235 478 l 1042 840 b 875 944 993 932 944 944 b 711 840 807 944 760 932 l 586 607 b 456 350 522 486 486 415 b 393 606 442 425 422 501 l 306 929 l 18 929 l 254 113 b 415 -15 279 26 343 -15 b 574 83 490 -15 540 24 l 722 347 b 869 625 803 490 840 558 b 1019 346 901 558 939 489 z "},"x":{"ha":1444,"x_min":0,"x_max":0,"o":"m 1035 929 l 736 640 l 440 929 l 42 929 l 326 663 b 543 469 472 526 508 494 b 326 279 508 443 468 410 l 24 0 l 381 0 l 707 307 l 1024 0 l 1429 0 l 1132 279 b 907 481 982 419 940 458 b 1114 661 942 507 985 544 l 1407 929 z "},"y":{"ha":1428,"x_min":0,"x_max":0,"o":"m 1057 929 l 846 672 b 729 525 779 592 747 551 b 603 671 710 553 632 638 l 381 929 l 11 929 l 578 308 l 578 0 l 867 0 l 867 307 l 1418 929 z "},"z":{"ha":1249,"x_min":0,"x_max":0,"o":"m 1238 239 l 900 239 b 531 233 754 239 576 236 b 783 426 567 258 631 306 l 1126 699 b 1189 813 1165 728 1189 771 b 1056 929 1189 888 1128 929 l 199 929 l 15 688 l 388 688 b 707 693 572 688 657 689 b 451 499 672 668 606 622 l 113 232 b 50 117 74 201 50 160 b 183 0 50 42 111 0 l 1064 0 z "},"{":{"ha":501,"x_min":0,"x_max":0,"o":"m 435 1101 l 342 1101 b 183 929 235 1101 183 1043 l 183 579 b 99 531 183 549 156 532 l 99 383 b 183 333 156 382 183 367 l 183 -8 b 342 -179 183 -122 235 -179 l 435 -179 l 435 -12 b 351 18 379 -12 351 -1 l 351 321 b 272 457 351 393 325 439 b 351 593 325 478 351 522 l 351 903 b 435 933 351 922 379 933 z "},"|":{"ha":415,"x_min":0,"x_max":0,"o":"m 283 1049 l 131 1049 l 131 -137 l 283 -137 z "},"}":{"ha":501,"x_min":0,"x_max":0,"o":"m 318 929 b 160 1101 318 1043 265 1101 l 65 1101 l 65 933 b 150 903 122 933 150 922 l 150 593 b 229 457 150 522 176 478 b 150 321 176 439 150 393 l 150 18 b 65 -12 150 -1 122 -12 l 65 -179 l 160 -179 b 318 -8 265 -179 318 -122 l 318 333 b 403 383 318 367 346 382 l 403 531 b 318 579 346 532 318 549 z "},"~":{"ha":788,"x_min":0,"x_max":0,"o":"m 531 307 b 724 397 590 307 653 326 l 724 625 b 551 514 661 543 604 514 b 246 615 443 514 347 615 b 56 524 189 615 126 597 l 56 296 b 228 410 117 378 174 410 b 531 307 329 410 428 307 z "}," ":{"ha":532,"x_min":0,"x_max":0,"o":""},"¡":{"ha":451,"x_min":0,"x_max":0,"o":"m 375 0 l 375 310 l 344 583 l 119 583 l 88 310 l 88 0 z m 385 811 b 228 944 385 896 315 944 b 72 811 142 944 72 896 b 228 675 72 725 142 675 b 385 811 315 675 385 725 z "},"¢":{"ha":915,"x_min":0,"x_max":0,"o":"m 578 929 l 464 929 l 464 806 b 69 485 238 806 69 675 b 464 151 69 294 238 151 l 464 0 l 578 0 l 578 151 l 740 151 l 869 319 l 578 319 l 578 635 l 740 635 l 869 806 l 578 806 z m 464 319 b 274 476 356 319 274 382 b 464 635 274 569 356 635 z "},"£":{"ha":1129,"x_min":0,"x_max":0,"o":"m 140 560 l 0 381 l 282 381 l 282 239 l 229 239 l 43 0 l 932 0 l 1118 239 l 564 239 l 564 381 l 724 381 l 865 560 l 564 560 l 564 624 b 663 688 564 671 596 688 l 932 688 l 1117 929 l 685 929 b 282 640 403 929 282 815 l 282 560 z "},"¥":{"ha":1428,"x_min":0,"x_max":0,"o":"m 1246 240 l 867 240 l 867 307 l 885 328 l 1246 328 l 1246 483 l 1022 483 l 1418 929 l 1057 929 l 846 672 b 729 525 779 592 747 551 b 603 671 710 553 632 638 l 381 929 l 11 929 l 418 483 l 210 483 l 210 328 l 560 328 l 578 308 l 578 240 l 210 240 l 210 85 l 578 85 l 578 0 l 867 0 l 867 85 l 1246 85 z "},"¦":{"ha":415,"x_min":0,"x_max":0,"o":"m 283 -137 l 283 319 l 131 319 l 131 -137 z m 283 1049 l 131 1049 l 131 618 l 283 618 z "},"¨":{"ha":597,"x_min":0,"x_max":0,"o":"m 36 1118 b 154 1017 36 1054 89 1017 b 274 1118 221 1017 274 1054 b 154 1222 274 1185 221 1222 b 36 1118 89 1222 36 1185 z m 325 1118 b 443 1017 325 1054 379 1017 b 563 1118 510 1017 563 1054 b 443 1222 563 1185 510 1222 b 325 1118 379 1222 325 1185 z "},"©":{"ha":1081,"x_min":0,"x_max":0,"o":"m 536 317 b 385 463 449 317 385 376 b 536 610 385 550 451 610 l 642 610 l 699 686 l 536 686 b 297 468 399 686 297 599 b 536 242 297 339 399 242 l 642 242 l 699 317 z m 61 465 b 542 -15 61 200 276 -15 b 1022 465 807 -15 1022 200 b 542 946 1022 732 807 946 b 61 465 276 946 61 732 z m 118 464 b 544 893 118 699 307 893 b 969 464 779 893 969 699 b 544 39 969 228 779 39 b 118 464 307 39 118 228 z "},"ª":{"ha":944,"x_min":0,"x_max":0,"o":"m 897 394 l 578 856 b 478 914 556 889 526 914 b 376 856 428 914 399 886 l 49 394 l 235 394 l 475 733 l 567 599 b 619 525 583 574 604 543 b 526 526 594 526 558 526 l 400 526 l 304 394 z "},"«":{"ha":633,"x_min":0,"x_max":0,"o":"m 282 551 l 282 683 l 40 510 l 40 383 l 282 219 l 282 349 l 125 451 z m 576 551 l 576 683 l 335 510 l 335 383 l 576 219 l 576 349 l 419 451 z "},"®":{"ha":699,"x_min":0,"x_max":0,"o":"m 347 892 b 596 672 489 892 596 779 b 347 450 596 549 481 450 b 113 672 203 450 113 563 b 347 892 113 779 203 892 z m 349 400 b 642 672 514 400 642 528 b 349 944 642 822 518 944 b 60 672 179 944 60 818 b 349 400 60 528 179 400 z m 446 614 b 417 642 431 628 424 636 b 472 707 451 649 472 674 b 363 782 472 768 411 782 l 282 782 l 239 728 l 368 728 b 404 703 390 728 404 721 b 368 679 404 689 389 679 l 239 679 l 239 574 l 304 574 l 304 628 l 351 628 l 399 574 l 485 574 z "},"¯":{"ha":546,"x_min":0,"x_max":0,"o":"m 479 1157 l 65 1157 l 65 1042 l 479 1042 z "},"°":{"ha":549,"x_min":0,"x_max":0,"o":"m 278 832 b 379 729 344 832 379 797 b 278 632 379 665 344 632 b 178 732 210 632 178 665 b 278 832 178 799 210 832 z m 278 944 b 65 732 136 944 65 874 b 278 519 65 590 136 519 b 490 732 419 519 490 590 b 278 944 490 874 419 944 z "},"±":{"ha":874,"x_min":0,"x_max":0,"o":"m 817 -3 l 58 -3 l 58 -158 l 817 -158 z m 817 550 l 514 550 l 514 850 l 358 850 l 358 550 l 58 550 l 58 394 l 358 394 l 358 92 l 514 92 l 514 394 l 817 394 z "},"²":{"ha":689,"x_min":0,"x_max":0,"o":"m 72 833 l 449 833 b 497 801 481 833 497 825 b 449 768 497 778 481 768 l 228 768 b 53 640 114 768 53 726 l 53 490 l 547 490 l 640 610 l 192 610 l 192 642 b 240 676 192 665 208 676 l 461 676 b 636 810 581 676 636 731 b 436 954 636 897 578 954 l 164 954 z "},"³":{"ha":672,"x_min":0,"x_max":0,"o":"m 26 490 l 435 490 b 624 625 581 490 624 547 b 551 729 624 681 592 717 b 614 825 582 739 614 771 b 431 954 614 910 543 954 l 140 954 l 49 833 l 438 833 b 478 804 457 833 478 826 b 438 772 478 781 458 772 l 232 772 l 157 672 l 435 672 b 479 640 467 672 479 663 b 435 610 479 619 467 610 l 117 610 z "},"´":{"ha":546,"x_min":0,"x_max":0,"o":"m 519 1204 l 106 1108 l 106 993 l 519 1047 z "},"·":{"ha":429,"x_min":0,"x_max":0,"o":"m 58 468 b 214 335 58 383 128 335 b 371 468 301 335 371 383 b 214 604 371 554 301 604 b 58 468 128 604 58 554 z "},"¸":{"ha":414,"x_min":0,"x_max":0,"o":"m 90 -43 l 90 -354 l 190 -354 l 306 -43 z "},"¹":{"ha":349,"x_min":0,"x_max":0,"o":"m 28 833 l 140 833 l 140 490 l 285 490 l 285 954 l 114 954 z "},"º":{"ha":890,"x_min":0,"x_max":0,"o":"m 446 914 b 71 650 196 914 71 833 b 446 385 71 468 196 385 b 819 650 694 385 819 468 b 446 914 819 833 694 914 z m 446 519 b 229 650 286 519 229 540 b 446 781 229 760 286 781 b 661 650 604 781 661 760 b 446 519 661 540 604 519 z "},"»":{"ha":633,"x_min":0,"x_max":0,"o":"m 222 451 l 64 349 l 64 219 l 307 383 l 307 510 l 64 683 l 64 551 z m 515 451 l 358 349 l 358 219 l 600 383 l 600 510 l 358 683 l 358 551 z "},"¼":{"ha":1286,"x_min":0,"x_max":0,"o":"m 58 833 l 171 833 l 171 490 l 315 490 l 315 954 l 144 954 z m 860 981 l 110 -53 l 236 -53 l 976 981 z m 957 42 l 957 -12 l 1096 -12 l 1096 42 l 1144 42 l 1228 157 l 1096 157 l 1096 372 b 1017 458 1096 433 1057 458 b 950 433 999 458 974 453 l 615 161 b 585 106 594 144 585 124 b 656 42 585 72 611 42 z m 957 157 l 875 157 b 796 154 840 157 815 156 b 858 200 811 165 833 179 l 910 242 b 960 285 932 260 949 274 b 957 225 958 269 957 254 z "},"½":{"ha":1319,"x_min":0,"x_max":0,"o":"m 58 833 l 171 833 l 171 490 l 315 490 l 315 954 l 144 954 z m 847 981 l 97 -53 l 224 -53 l 964 981 z m 694 331 l 1071 331 b 1119 299 1103 331 1119 322 b 1071 265 1119 275 1103 265 l 850 265 b 675 138 736 265 675 224 l 675 -12 l 1169 -12 l 1263 107 l 814 107 l 814 139 b 863 174 814 163 831 174 l 1083 174 b 1258 307 1203 174 1258 228 b 1058 451 1258 394 1200 451 l 786 451 z "},"¾":{"ha":1468,"x_min":0,"x_max":0,"o":"m 58 490 l 467 490 b 656 625 613 490 656 547 b 583 729 656 681 624 717 b 646 825 614 739 646 771 b 463 954 646 910 575 954 l 172 954 l 81 833 l 469 833 b 510 804 489 833 510 826 b 469 772 510 781 490 772 l 264 772 l 189 672 l 467 672 b 511 640 499 672 511 663 b 467 610 511 619 499 610 l 149 610 z m 1067 981 l 317 -53 l 443 -53 l 1183 981 z m 1139 42 l 1139 -12 l 1278 -12 l 1278 42 l 1326 42 l 1410 157 l 1278 157 l 1278 372 b 1199 458 1278 433 1239 458 b 1132 433 1181 458 1156 453 l 797 161 b 767 106 776 144 767 124 b 838 42 767 72 793 42 z m 1139 157 l 1057 157 b 978 154 1022 157 997 156 b 1040 200 993 165 1015 179 l 1092 242 b 1142 285 1114 260 1131 274 b 1139 225 1140 269 1139 254 z "},"¿":{"ha":1032,"x_min":0,"x_max":0,"o":"m 1017 242 l 414 242 b 315 306 347 242 315 258 b 414 371 315 353 347 371 l 574 371 b 792 554 732 371 792 438 l 792 583 l 554 583 l 554 578 b 526 556 554 564 546 556 l 386 556 b 39 289 147 556 39 449 b 436 0 39 114 154 0 l 831 0 z m 818 811 b 661 944 818 896 749 944 b 506 811 575 944 506 896 b 661 675 506 725 575 675 b 818 811 749 675 818 725 z "},"À":{"ha":1576,"x_min":0,"x_max":0,"o":"m 1561 0 l 981 840 b 797 944 940 899 883 944 b 611 840 707 944 650 894 l 15 0 l 356 0 l 792 617 l 958 371 b 1053 236 989 326 1028 269 b 888 239 1008 239 943 239 l 654 239 l 481 0 z m 956 1108 l 542 1204 l 542 1047 l 956 993 z "},"Á":{"ha":1576,"x_min":0,"x_max":0,"o":"m 1561 0 l 981 840 b 797 944 940 899 883 944 b 611 840 707 944 650 894 l 15 0 l 356 0 l 792 617 l 958 371 b 1053 236 989 326 1028 269 b 888 239 1008 239 943 239 l 654 239 l 481 0 z m 1035 1204 l 621 1108 l 621 993 l 1035 1047 z "},"Â":{"ha":1576,"x_min":0,"x_max":0,"o":"m 1561 0 l 981 840 b 797 944 940 899 883 944 b 611 840 707 944 650 894 l 15 0 l 356 0 l 792 617 l 958 371 b 1053 236 989 326 1028 269 b 888 239 1008 239 943 239 l 654 239 l 481 0 z m 881 1204 l 699 1204 l 567 993 l 706 993 l 782 1133 l 794 1133 l 872 993 l 1010 993 z "},"Ã":{"ha":1576,"x_min":0,"x_max":0,"o":"m 1561 0 l 981 840 b 797 944 940 899 883 944 b 611 840 707 944 650 894 l 15 0 l 356 0 l 792 617 l 958 371 b 1053 236 989 326 1028 269 b 888 239 1008 239 943 239 l 654 239 l 481 0 z m 889 1017 b 994 1058 931 1017 968 1028 l 994 1172 b 889 1122 971 1144 932 1122 b 688 1181 817 1122 760 1181 b 581 1139 646 1181 607 1168 l 581 1024 b 688 1074 604 1051 644 1074 b 889 1017 760 1074 818 1017 z "},"Ä":{"ha":1576,"x_min":0,"x_max":0,"o":"m 1561 0 l 981 840 b 797 944 940 899 883 944 b 611 840 707 944 650 894 l 15 0 l 356 0 l 792 617 l 958 371 b 1053 236 989 326 1028 269 b 888 239 1008 239 943 239 l 654 239 l 481 0 z m 525 1118 b 643 1017 525 1054 578 1017 b 763 1118 710 1017 763 1054 b 643 1222 763 1185 710 1222 b 525 1118 578 1222 525 1185 z m 814 1118 b 932 1017 814 1054 868 1017 b 1051 1118 999 1017 1051 1054 b 932 1222 1051 1185 999 1222 b 814 1118 868 1222 814 1185 z "},"Å":{"ha":1576,"x_min":0,"x_max":0,"o":"m 1561 0 l 981 840 b 797 944 940 899 883 944 b 611 840 707 944 650 894 l 15 0 l 356 0 l 792 617 l 958 371 b 1053 236 989 326 1028 269 b 888 239 1008 239 943 239 l 654 239 l 481 0 z m 853 1213 b 881 1188 872 1213 881 1204 l 881 1117 b 853 1092 881 1100 872 1092 l 722 1092 b 696 1117 706 1092 696 1100 l 696 1188 b 722 1213 696 1203 706 1213 z m 989 1196 b 844 1313 989 1274 940 1313 l 731 1313 b 588 1196 635 1313 588 1274 l 588 1108 b 731 993 588 1031 635 993 l 844 993 b 989 1108 940 993 989 1031 z "},"Æ":{"ha":2003,"x_min":0,"x_max":0,"o":"m 785 929 b 600 824 696 929 639 879 l 15 0 l 356 0 l 840 688 l 914 688 l 914 0 l 1807 0 l 1993 239 l 1201 239 l 1201 365 l 1774 365 l 1938 576 l 1201 576 l 1201 688 l 1803 688 l 1989 929 z "},"Ç":{"ha":1282,"x_min":0,"x_max":0,"o":"m 618 239 b 346 461 461 239 346 329 b 618 688 346 594 463 688 l 1085 688 l 1269 929 l 618 929 b 58 474 296 929 58 746 b 618 0 58 204 296 0 l 1085 0 l 1269 239 z m 618 -43 l 618 -354 l 718 -354 l 832 -43 z "},"È":{"ha":1178,"x_min":0,"x_max":0,"o":"m 376 239 l 376 365 l 947 365 l 1113 576 l 376 576 l 376 688 l 978 688 l 1164 929 l 88 929 l 88 0 l 982 0 l 1167 239 z m 769 1108 l 356 1204 l 356 1047 l 769 993 z "},"É":{"ha":1178,"x_min":0,"x_max":0,"o":"m 376 239 l 376 365 l 947 365 l 1113 576 l 376 576 l 376 688 l 978 688 l 1164 929 l 88 929 l 88 0 l 982 0 l 1167 239 z m 822 1204 l 408 1108 l 408 993 l 822 1047 z "},"Ê":{"ha":1178,"x_min":0,"x_max":0,"o":"m 376 239 l 376 365 l 947 365 l 1113 576 l 376 576 l 376 688 l 978 688 l 1164 929 l 88 929 l 88 0 l 982 0 l 1167 239 z m 694 1204 l 513 1204 l 381 993 l 519 993 l 596 1133 l 608 1133 l 686 993 l 824 993 z "},"Ë":{"ha":1178,"x_min":0,"x_max":0,"o":"m 376 239 l 376 365 l 947 365 l 1113 576 l 376 576 l 376 688 l 978 688 l 1164 929 l 88 929 l 88 0 l 982 0 l 1167 239 z m 321 1118 b 439 1017 321 1054 374 1017 b 558 1118 506 1017 558 1054 b 439 1222 558 1185 506 1222 b 321 1118 374 1222 321 1185 z m 610 1118 b 728 1017 610 1054 664 1017 b 847 1118 794 1017 847 1054 b 728 1222 847 1185 794 1222 b 610 1118 664 1222 610 1185 z "},"Ì":{"ha":471,"x_min":0,"x_max":0,"o":"m 379 929 l 92 929 l 92 0 l 379 0 z m 404 1108 l -10 1204 l -10 1047 l 404 993 z "},"Í":{"ha":471,"x_min":0,"x_max":0,"o":"m 379 929 l 92 929 l 92 0 l 379 0 z m 483 1204 l 69 1108 l 69 993 l 483 1047 z "},"Î":{"ha":471,"x_min":0,"x_max":0,"o":"m 379 929 l 92 929 l 92 0 l 379 0 z m 328 1204 l 146 1204 l 14 993 l 153 993 l 229 1133 l 242 1133 l 319 993 l 457 993 z "},"Ï":{"ha":471,"x_min":0,"x_max":0,"o":"m 379 929 l 92 929 l 92 0 l 379 0 z m -26 1118 b 92 1017 -26 1054 26 1017 b 211 1118 158 1017 211 1054 b 92 1222 211 1185 158 1222 b -26 1118 26 1222 -26 1185 z m 263 1118 b 381 1017 263 1054 317 1017 b 500 1118 447 1017 500 1054 b 381 1222 500 1185 447 1222 b 263 1118 317 1222 263 1185 z "},"Ð":{"ha":1446,"x_min":0,"x_max":0,"o":"m 164 576 l 0 365 l 207 365 l 207 0 l 828 0 b 1388 474 1150 0 1388 204 b 828 929 1388 742 1153 929 l 389 929 l 207 688 l 828 688 b 1103 461 983 688 1103 592 b 828 239 1103 328 988 239 l 494 239 l 494 365 l 665 365 l 829 576 z "},"Ñ":{"ha":1269,"x_min":0,"x_max":0,"o":"m 1029 -15 b 1188 160 1113 -15 1188 36 l 1188 929 l 925 929 l 925 383 l 356 894 b 240 944 310 936 275 944 b 83 771 158 944 83 894 l 83 0 l 344 0 l 344 546 l 914 35 b 1029 -15 958 -7 993 -15 z m 731 1017 b 836 1058 772 1017 810 1028 l 836 1172 b 731 1122 813 1144 774 1122 b 529 1181 658 1122 601 1181 b 422 1139 488 1181 449 1168 l 422 1024 b 529 1074 446 1051 486 1074 b 731 1017 601 1074 660 1017 z "},"Ò":{"ha":1475,"x_min":0,"x_max":0,"o":"m 738 944 b 58 465 285 944 58 797 b 738 -15 58 133 285 -15 b 1417 465 1189 -15 1417 133 b 738 944 1417 797 1189 944 z m 738 226 b 344 465 449 226 344 265 b 738 703 344 665 449 703 b 1131 465 1026 703 1131 665 b 738 226 1131 265 1026 226 z m 904 1108 l 490 1204 l 490 1047 l 904 993 z "},"Ó":{"ha":1475,"x_min":0,"x_max":0,"o":"m 738 944 b 58 465 285 944 58 797 b 738 -15 58 133 285 -15 b 1417 465 1189 -15 1417 133 b 738 944 1417 797 1189 944 z m 738 226 b 344 465 449 226 344 265 b 738 703 344 665 449 703 b 1131 465 1026 703 1131 665 b 738 226 1131 265 1026 226 z m 983 1204 l 569 1108 l 569 993 l 983 1047 z "},"Ô":{"ha":1475,"x_min":0,"x_max":0,"o":"m 738 944 b 58 465 285 944 58 797 b 738 -15 58 133 285 -15 b 1417 465 1189 -15 1417 133 b 738 944 1417 797 1189 944 z m 738 226 b 344 465 449 226 344 265 b 738 703 344 665 449 703 b 1131 465 1026 703 1131 665 b 738 226 1131 265 1026 226 z m 829 1204 l 647 1204 l 515 993 l 654 993 l 731 1133 l 743 1133 l 821 993 l 958 993 z "},"Õ":{"ha":1475,"x_min":0,"x_max":0,"o":"m 738 944 b 58 465 285 944 58 797 b 738 -15 58 133 285 -15 b 1417 465 1189 -15 1417 133 b 738 944 1417 797 1189 944 z m 738 226 b 344 465 449 226 344 265 b 738 703 344 665 449 703 b 1131 465 1026 703 1131 665 b 738 226 1131 265 1026 226 z m 838 1017 b 943 1058 879 1017 917 1028 l 943 1172 b 838 1122 919 1144 881 1122 b 636 1181 765 1122 708 1181 b 529 1139 594 1181 556 1168 l 529 1024 b 636 1074 553 1051 593 1074 b 838 1017 708 1074 767 1017 z "},"Ö":{"ha":1475,"x_min":0,"x_max":0,"o":"m 738 944 b 58 465 285 944 58 797 b 738 -15 58 133 285 -15 b 1417 465 1189 -15 1417 133 b 738 944 1417 797 1189 944 z m 738 226 b 344 465 449 226 344 265 b 738 703 344 665 449 703 b 1131 465 1026 703 1131 665 b 738 226 1131 265 1026 226 z m 475 1118 b 593 1017 475 1054 528 1017 b 713 1118 660 1017 713 1054 b 593 1222 713 1185 660 1222 b 475 1118 528 1222 475 1185 z m 764 1118 b 882 1017 764 1054 818 1017 b 1001 1118 949 1017 1001 1054 b 882 1222 1001 1185 949 1222 b 764 1118 818 1222 764 1185 z "},"×":{"ha":874,"x_min":0,"x_max":0,"o":"m 738 264 l 524 478 l 736 690 l 626 800 l 414 588 l 201 800 l 92 692 l 304 478 l 90 264 l 200 156 l 414 368 l 626 154 z "},"Ø":{"ha":1475,"x_min":0,"x_max":0,"o":"m 738 944 b 58 465 285 944 58 797 b 265 76 58 282 126 154 l 186 0 l 254 -65 l 358 36 b 738 -15 460 0 585 -15 b 1417 465 1189 -15 1417 133 b 1210 853 1417 649 1347 775 l 1289 929 l 1218 994 l 1114 894 b 738 944 1014 928 888 944 z m 738 226 b 565 233 671 226 613 228 l 1018 671 b 1131 465 1097 638 1131 576 b 738 226 1131 265 1026 226 z m 344 465 b 738 703 344 665 449 703 b 907 696 803 703 860 700 l 454 258 b 344 465 376 292 344 354 z "},"Ù":{"ha":1369,"x_min":0,"x_max":0,"o":"m 1294 929 l 1006 929 l 1006 406 b 715 224 1006 275 936 224 b 361 406 419 224 361 268 l 361 929 l 75 929 l 75 406 b 715 -15 75 125 268 -15 b 1294 406 1101 -15 1294 125 z m 851 1108 l 438 1204 l 438 1047 l 851 993 z "},"Ú":{"ha":1369,"x_min":0,"x_max":0,"o":"m 1294 929 l 1006 929 l 1006 406 b 715 224 1006 275 936 224 b 361 406 419 224 361 268 l 361 929 l 75 929 l 75 406 b 715 -15 75 125 268 -15 b 1294 406 1101 -15 1294 125 z m 931 1204 l 517 1108 l 517 993 l 931 1047 z "},"Û":{"ha":1369,"x_min":0,"x_max":0,"o":"m 1294 929 l 1006 929 l 1006 406 b 715 224 1006 275 936 224 b 361 406 419 224 361 268 l 361 929 l 75 929 l 75 406 b 715 -15 75 125 268 -15 b 1294 406 1101 -15 1294 125 z m 776 1204 l 594 1204 l 463 993 l 601 993 l 678 1133 l 690 1133 l 768 993 l 906 993 z "},"Ü":{"ha":1369,"x_min":0,"x_max":0,"o":"m 1294 929 l 1006 929 l 1006 406 b 715 224 1006 275 936 224 b 361 406 419 224 361 268 l 361 929 l 75 929 l 75 406 b 715 -15 75 125 268 -15 b 1294 406 1101 -15 1294 125 z m 422 1118 b 540 1017 422 1054 475 1017 b 660 1118 607 1017 660 1054 b 540 1222 660 1185 607 1222 b 422 1118 475 1222 422 1185 z m 711 1118 b 829 1017 711 1054 765 1017 b 949 1118 896 1017 949 1054 b 829 1222 949 1185 896 1222 b 711 1118 765 1222 711 1185 z "},"Ý":{"ha":1428,"x_min":0,"x_max":0,"o":"m 1057 929 l 846 672 b 729 525 779 592 747 551 b 603 671 710 553 632 638 l 381 929 l 11 929 l 578 308 l 578 0 l 867 0 l 867 307 l 1418 929 z m 954 1204 l 540 1108 l 540 993 l 954 1047 z "},"Þ":{"ha":1331,"x_min":0,"x_max":0,"o":"m 88 0 l 375 0 l 375 563 l 849 563 b 990 454 939 563 990 519 b 849 350 990 390 939 350 l 633 350 l 443 108 l 822 108 b 1279 456 1111 108 1279 250 b 821 799 1279 663 1111 799 l 375 799 l 375 929 l 88 929 z "},"ß":{"ha":2676,"x_min":0,"x_max":0,"o":"m 443 558 b 344 624 376 558 344 576 b 443 688 344 671 376 688 l 1088 688 l 1272 929 l 465 929 b 67 640 183 929 67 815 b 415 374 67 481 176 374 l 921 374 b 1019 307 989 374 1019 354 b 921 239 1019 258 989 239 l 218 239 l 33 0 l 899 0 b 1297 304 1182 0 1297 114 b 949 558 1297 474 1175 558 z m 1781 558 b 1682 624 1714 558 1682 576 b 1781 688 1682 671 1714 688 l 2425 688 l 2610 929 l 1803 929 b 1404 640 1521 929 1404 815 b 1753 374 1404 481 1514 374 l 2258 374 b 2357 307 2326 374 2357 354 b 2258 239 2357 258 2326 239 l 1556 239 l 1371 0 l 2236 0 b 2635 304 2519 0 2635 114 b 2286 558 2635 474 2513 558 z "},"à":{"ha":1576,"x_min":0,"x_max":0,"o":"m 1561 0 l 981 840 b 797 944 940 899 883 944 b 611 840 707 944 650 894 l 15 0 l 356 0 l 792 617 l 958 371 b 1053 236 989 326 1028 269 b 888 239 1008 239 943 239 l 654 239 l 481 0 z m 956 1108 l 542 1204 l 542 1047 l 956 993 z "},"á":{"ha":1576,"x_min":0,"x_max":0,"o":"m 1561 0 l 981 840 b 797 944 940 899 883 944 b 611 840 707 944 650 894 l 15 0 l 356 0 l 792 617 l 958 371 b 1053 236 989 326 1028 269 b 888 239 1008 239 943 239 l 654 239 l 481 0 z m 1035 1204 l 621 1108 l 621 993 l 1035 1047 z "},"â":{"ha":1576,"x_min":0,"x_max":0,"o":"m 1561 0 l 981 840 b 797 944 940 899 883 944 b 611 840 707 944 650 894 l 15 0 l 356 0 l 792 617 l 958 371 b 1053 236 989 326 1028 269 b 888 239 1008 239 943 239 l 654 239 l 481 0 z m 881 1204 l 699 1204 l 567 993 l 706 993 l 782 1133 l 794 1133 l 872 993 l 1010 993 z "},"ã":{"ha":1576,"x_min":0,"x_max":0,"o":"m 1561 0 l 981 840 b 797 944 940 899 883 944 b 611 840 707 944 650 894 l 15 0 l 356 0 l 792 617 l 958 371 b 1053 236 989 326 1028 269 b 888 239 1008 239 943 239 l 654 239 l 481 0 z m 889 1017 b 994 1058 931 1017 968 1028 l 994 1172 b 889 1122 971 1144 932 1122 b 688 1181 817 1122 760 1181 b 581 1139 646 1181 607 1168 l 581 1024 b 688 1074 604 1051 644 1074 b 889 1017 760 1074 818 1017 z "},"ä":{"ha":1576,"x_min":0,"x_max":0,"o":"m 1561 0 l 981 840 b 797 944 940 899 883 944 b 611 840 707 944 650 894 l 15 0 l 356 0 l 792 617 l 958 371 b 1053 236 989 326 1028 269 b 888 239 1008 239 943 239 l 654 239 l 481 0 z m 525 1118 b 643 1017 525 1054 578 1017 b 763 1118 710 1017 763 1054 b 643 1222 763 1185 710 1222 b 525 1118 578 1222 525 1185 z m 814 1118 b 932 1017 814 1054 868 1017 b 1051 1118 999 1017 1051 1054 b 932 1222 1051 1185 999 1222 b 814 1118 868 1222 814 1185 z "},"å":{"ha":1576,"x_min":0,"x_max":0,"o":"m 1561 0 l 981 840 b 797 944 940 899 883 944 b 611 840 707 944 650 894 l 15 0 l 356 0 l 792 617 l 958 371 b 1053 236 989 326 1028 269 b 888 239 1008 239 943 239 l 654 239 l 481 0 z m 853 1213 b 881 1188 872 1213 881 1204 l 881 1117 b 853 1092 881 1100 872 1092 l 722 1092 b 696 1117 706 1092 696 1100 l 696 1188 b 722 1213 696 1203 706 1213 z m 989 1196 b 844 1313 989 1274 940 1313 l 731 1313 b 588 1196 635 1313 588 1274 l 588 1108 b 731 993 588 1031 635 993 l 844 993 b 989 1108 940 993 989 1031 z "},"æ":{"ha":2003,"x_min":0,"x_max":0,"o":"m 785 929 b 600 824 696 929 639 879 l 15 0 l 356 0 l 840 688 l 914 688 l 914 0 l 1807 0 l 1993 239 l 1201 239 l 1201 365 l 1774 365 l 1938 576 l 1201 576 l 1201 688 l 1803 688 l 1989 929 z "},"ç":{"ha":1282,"x_min":0,"x_max":0,"o":"m 618 239 b 346 461 461 239 346 329 b 618 688 346 594 463 688 l 1085 688 l 1269 929 l 618 929 b 58 474 296 929 58 746 b 618 0 58 204 296 0 l 1085 0 l 1269 239 z m 618 -43 l 618 -354 l 718 -354 l 832 -43 z "},"è":{"ha":1178,"x_min":0,"x_max":0,"o":"m 376 239 l 376 365 l 947 365 l 1113 576 l 376 576 l 376 688 l 978 688 l 1164 929 l 88 929 l 88 0 l 982 0 l 1167 239 z m 769 1108 l 356 1204 l 356 1047 l 769 993 z "},"é":{"ha":1178,"x_min":0,"x_max":0,"o":"m 376 239 l 376 365 l 947 365 l 1113 576 l 376 576 l 376 688 l 978 688 l 1164 929 l 88 929 l 88 0 l 982 0 l 1167 239 z m 822 1204 l 408 1108 l 408 993 l 822 1047 z "},"ê":{"ha":1178,"x_min":0,"x_max":0,"o":"m 376 239 l 376 365 l 947 365 l 1113 576 l 376 576 l 376 688 l 978 688 l 1164 929 l 88 929 l 88 0 l 982 0 l 1167 239 z m 694 1204 l 513 1204 l 381 993 l 519 993 l 596 1133 l 608 1133 l 686 993 l 824 993 z "},"ë":{"ha":1178,"x_min":0,"x_max":0,"o":"m 376 239 l 376 365 l 947 365 l 1113 576 l 376 576 l 376 688 l 978 688 l 1164 929 l 88 929 l 88 0 l 982 0 l 1167 239 z m 321 1118 b 439 1017 321 1054 374 1017 b 558 1118 506 1017 558 1054 b 439 1222 558 1185 506 1222 b 321 1118 374 1222 321 1185 z m 610 1118 b 728 1017 610 1054 664 1017 b 847 1118 794 1017 847 1054 b 728 1222 847 1185 794 1222 b 610 1118 664 1222 610 1185 z "},"ì":{"ha":471,"x_min":0,"x_max":0,"o":"m 379 929 l 92 929 l 92 0 l 379 0 z m 404 1108 l -10 1204 l -10 1047 l 404 993 z "},"í":{"ha":471,"x_min":0,"x_max":0,"o":"m 379 929 l 92 929 l 92 0 l 379 0 z m 483 1204 l 69 1108 l 69 993 l 483 1047 z "},"î":{"ha":471,"x_min":0,"x_max":0,"o":"m 379 929 l 92 929 l 92 0 l 379 0 z m 328 1204 l 146 1204 l 14 993 l 153 993 l 229 1133 l 242 1133 l 319 993 l 457 993 z "},"ï":{"ha":471,"x_min":0,"x_max":0,"o":"m 379 929 l 92 929 l 92 0 l 379 0 z m -26 1118 b 92 1017 -26 1054 26 1017 b 211 1118 158 1017 211 1054 b 92 1222 211 1185 158 1222 b -26 1118 26 1222 -26 1185 z m 263 1118 b 381 1017 263 1054 317 1017 b 500 1118 447 1017 500 1054 b 381 1222 500 1185 447 1222 b 263 1118 317 1222 263 1185 z "},"ð":{"ha":1446,"x_min":0,"x_max":0,"o":"m 164 576 l 0 365 l 207 365 l 207 0 l 828 0 b 1388 474 1150 0 1388 204 b 828 929 1388 742 1153 929 l 389 929 l 207 688 l 828 688 b 1103 461 983 688 1103 592 b 828 239 1103 328 988 239 l 494 239 l 494 365 l 665 365 l 829 576 z "},"ñ":{"ha":1269,"x_min":0,"x_max":0,"o":"m 1029 -15 b 1188 160 1113 -15 1188 36 l 1188 929 l 925 929 l 925 383 l 356 894 b 240 944 310 936 275 944 b 83 771 158 944 83 894 l 83 0 l 344 0 l 344 546 l 914 35 b 1029 -15 958 -7 993 -15 z m 731 1017 b 836 1058 772 1017 810 1028 l 836 1172 b 731 1122 813 1144 774 1122 b 529 1181 658 1122 601 1181 b 422 1139 488 1181 449 1168 l 422 1024 b 529 1074 446 1051 486 1074 b 731 1017 601 1074 660 1017 z "},"ò":{"ha":1475,"x_min":0,"x_max":0,"o":"m 738 944 b 58 465 285 944 58 797 b 738 -15 58 133 285 -15 b 1417 465 1189 -15 1417 133 b 738 944 1417 797 1189 944 z m 738 226 b 344 465 449 226 344 265 b 738 703 344 665 449 703 b 1131 465 1026 703 1131 665 b 738 226 1131 265 1026 226 z m 904 1108 l 490 1204 l 490 1047 l 904 993 z "},"ó":{"ha":1475,"x_min":0,"x_max":0,"o":"m 738 944 b 58 465 285 944 58 797 b 738 -15 58 133 285 -15 b 1417 465 1189 -15 1417 133 b 738 944 1417 797 1189 944 z m 738 226 b 344 465 449 226 344 265 b 738 703 344 665 449 703 b 1131 465 1026 703 1131 665 b 738 226 1131 265 1026 226 z m 983 1204 l 569 1108 l 569 993 l 983 1047 z "},"ô":{"ha":1475,"x_min":0,"x_max":0,"o":"m 738 944 b 58 465 285 944 58 797 b 738 -15 58 133 285 -15 b 1417 465 1189 -15 1417 133 b 738 944 1417 797 1189 944 z m 738 226 b 344 465 449 226 344 265 b 738 703 344 665 449 703 b 1131 465 1026 703 1131 665 b 738 226 1131 265 1026 226 z m 829 1204 l 647 1204 l 515 993 l 654 993 l 731 1133 l 743 1133 l 821 993 l 958 993 z "},"õ":{"ha":1475,"x_min":0,"x_max":0,"o":"m 738 944 b 58 465 285 944 58 797 b 738 -15 58 133 285 -15 b 1417 465 1189 -15 1417 133 b 738 944 1417 797 1189 944 z m 738 226 b 344 465 449 226 344 265 b 738 703 344 665 449 703 b 1131 465 1026 703 1131 665 b 738 226 1131 265 1026 226 z m 838 1017 b 943 1058 879 1017 917 1028 l 943 1172 b 838 1122 919 1144 881 1122 b 636 1181 765 1122 708 1181 b 529 1139 594 1181 556 1168 l 529 1024 b 636 1074 553 1051 593 1074 b 838 1017 708 1074 767 1017 z "},"ö":{"ha":1475,"x_min":0,"x_max":0,"o":"m 738 944 b 58 465 285 944 58 797 b 738 -15 58 133 285 -15 b 1417 465 1189 -15 1417 133 b 738 944 1417 797 1189 944 z m 738 226 b 344 465 449 226 344 265 b 738 703 344 665 449 703 b 1131 465 1026 703 1131 665 b 738 226 1131 265 1026 226 z m 475 1118 b 593 1017 475 1054 528 1017 b 713 1118 660 1017 713 1054 b 593 1222 713 1185 660 1222 b 475 1118 528 1222 475 1185 z m 764 1118 b 882 1017 764 1054 818 1017 b 1001 1118 949 1017 1001 1054 b 882 1222 1001 1185 949 1222 b 764 1118 818 1222 764 1185 z "},"÷":{"ha":874,"x_min":0,"x_max":0,"o":"m 817 550 l 58 550 l 58 394 l 817 394 z m 281 794 b 436 661 281 710 350 661 b 593 794 524 661 593 710 b 436 931 593 881 524 931 b 281 794 350 931 281 881 z m 281 140 b 436 7 281 56 350 7 b 593 140 524 7 593 56 b 436 276 593 226 524 276 b 281 140 350 276 281 226 z "},"ø":{"ha":1475,"x_min":0,"x_max":0,"o":"m 738 944 b 58 465 285 944 58 797 b 265 76 58 282 126 154 l 186 0 l 254 -65 l 358 36 b 738 -15 460 0 585 -15 b 1417 465 1189 -15 1417 133 b 1210 853 1417 649 1347 775 l 1289 929 l 1218 994 l 1114 894 b 738 944 1014 928 888 944 z m 738 226 b 565 233 671 226 613 228 l 1018 671 b 1131 465 1097 638 1131 576 b 738 226 1131 265 1026 226 z m 344 465 b 738 703 344 665 449 703 b 907 696 803 703 860 700 l 454 258 b 344 465 376 292 344 354 z "},"ù":{"ha":1369,"x_min":0,"x_max":0,"o":"m 1294 929 l 1006 929 l 1006 406 b 715 224 1006 275 936 224 b 361 406 419 224 361 268 l 361 929 l 75 929 l 75 406 b 715 -15 75 125 268 -15 b 1294 406 1101 -15 1294 125 z m 851 1108 l 438 1204 l 438 1047 l 851 993 z "},"ú":{"ha":1369,"x_min":0,"x_max":0,"o":"m 1294 929 l 1006 929 l 1006 406 b 715 224 1006 275 936 224 b 361 406 419 224 361 268 l 361 929 l 75 929 l 75 406 b 715 -15 75 125 268 -15 b 1294 406 1101 -15 1294 125 z m 931 1204 l 517 1108 l 517 993 l 931 1047 z "},"û":{"ha":1369,"x_min":0,"x_max":0,"o":"m 1294 929 l 1006 929 l 1006 406 b 715 224 1006 275 936 224 b 361 406 419 224 361 268 l 361 929 l 75 929 l 75 406 b 715 -15 75 125 268 -15 b 1294 406 1101 -15 1294 125 z m 776 1204 l 594 1204 l 463 993 l 601 993 l 678 1133 l 690 1133 l 768 993 l 906 993 z "},"ü":{"ha":1369,"x_min":0,"x_max":0,"o":"m 1294 929 l 1006 929 l 1006 406 b 715 224 1006 275 936 224 b 361 406 419 224 361 268 l 361 929 l 75 929 l 75 406 b 715 -15 75 125 268 -15 b 1294 406 1101 -15 1294 125 z m 422 1118 b 540 1017 422 1054 475 1017 b 660 1118 607 1017 660 1054 b 540 1222 660 1185 607 1222 b 422 1118 475 1222 422 1185 z m 711 1118 b 829 1017 711 1054 765 1017 b 949 1118 896 1017 949 1054 b 829 1222 949 1185 896 1222 b 711 1118 765 1222 711 1185 z "},"ý":{"ha":1428,"x_min":0,"x_max":0,"o":"m 1057 929 l 846 672 b 729 525 779 592 747 551 b 603 671 710 553 632 638 l 381 929 l 11 929 l 578 308 l 578 0 l 867 0 l 867 307 l 1418 929 z m 954 1204 l 540 1108 l 540 993 l 954 1047 z "},"þ":{"ha":1331,"x_min":0,"x_max":0,"o":"m 88 0 l 375 0 l 375 563 l 849 563 b 990 454 939 563 990 519 b 849 350 990 390 939 350 l 633 350 l 443 108 l 822 108 b 1279 456 1111 108 1279 250 b 821 799 1279 663 1111 799 l 375 799 l 375 929 l 88 929 z "},"ÿ":{"ha":1428,"x_min":0,"x_max":0,"o":"m 1057 929 l 846 672 b 729 525 779 592 747 551 b 603 671 710 553 632 638 l 381 929 l 11 929 l 578 308 l 578 0 l 867 0 l 867 307 l 1418 929 z m 465 1118 b 583 1017 465 1054 518 1017 b 703 1118 650 1017 703 1054 b 583 1222 703 1185 650 1222 b 465 1118 518 1222 465 1185 z m 754 1118 b 872 1017 754 1054 808 1017 b 992 1118 939 1017 992 1054 b 872 1222 992 1185 939 1222 b 754 1118 808 1222 754 1185 z "},"Ā":{"ha":1576,"x_min":0,"x_max":0,"o":"m 1561 0 l 981 840 b 797 944 940 899 883 944 b 611 840 707 944 650 894 l 15 0 l 356 0 l 792 617 l 958 371 b 1053 236 989 326 1028 269 b 888 239 1008 239 943 239 l 654 239 l 481 0 z m 994 1157 l 581 1157 l 581 1042 l 994 1042 z "},"ā":{"ha":1576,"x_min":0,"x_max":0,"o":"m 1561 0 l 981 840 b 797 944 940 899 883 944 b 611 840 707 944 650 894 l 15 0 l 356 0 l 792 617 l 958 371 b 1053 236 989 326 1028 269 b 888 239 1008 239 943 239 l 654 239 l 481 0 z m 994 1157 l 581 1157 l 581 1042 l 994 1042 z "},"Ă":{"ha":1576,"x_min":0,"x_max":0,"o":"m 1561 0 l 981 840 b 797 944 940 899 883 944 b 611 840 707 944 650 894 l 15 0 l 356 0 l 792 617 l 958 371 b 1053 236 989 326 1028 269 b 888 239 1008 239 943 239 l 654 239 l 481 0 z m 872 1204 b 803 1078 872 1163 857 1078 l 783 1078 b 706 1204 722 1078 706 1163 l 567 1204 b 746 993 567 1132 614 993 l 832 993 b 1010 1204 964 993 1010 1132 z "},"ă":{"ha":1576,"x_min":0,"x_max":0,"o":"m 1561 0 l 981 840 b 797 944 940 899 883 944 b 611 840 707 944 650 894 l 15 0 l 356 0 l 792 617 l 958 371 b 1053 236 989 326 1028 269 b 888 239 1008 239 943 239 l 654 239 l 481 0 z m 872 1204 b 803 1078 872 1163 857 1078 l 783 1078 b 706 1204 722 1078 706 1163 l 567 1204 b 746 993 567 1132 614 993 l 832 993 b 1010 1204 964 993 1010 1132 z "},"Ą":{"ha":1576,"x_min":0,"x_max":0,"o":"m 1561 -169 l 1426 -169 b 1396 -147 1407 -169 1396 -160 b 1410 -122 1396 -139 1400 -131 l 1561 0 l 981 840 b 797 944 940 899 883 944 b 611 840 707 944 650 894 l 15 0 l 356 0 l 792 617 l 958 371 b 1053 236 989 326 1028 269 b 888 239 1008 239 943 239 l 654 239 l 481 0 l 1449 0 l 1321 -104 b 1251 -226 1272 -143 1251 -186 b 1417 -347 1251 -292 1314 -347 l 1561 -347 z "},"ą":{"ha":1576,"x_min":0,"x_max":0,"o":"m 1561 -169 l 1426 -169 b 1396 -147 1407 -169 1396 -160 b 1410 -122 1396 -139 1400 -131 l 1561 0 l 981 840 b 797 944 940 899 883 944 b 611 840 707 944 650 894 l 15 0 l 356 0 l 792 617 l 958 371 b 1053 236 989 326 1028 269 b 888 239 1008 239 943 239 l 654 239 l 481 0 l 1449 0 l 1321 -104 b 1251 -226 1272 -143 1251 -186 b 1417 -347 1251 -292 1314 -347 l 1561 -347 z "},"Ć":{"ha":1282,"x_min":0,"x_max":0,"o":"m 618 239 b 346 461 461 239 346 329 b 618 688 346 594 463 688 l 1085 688 l 1269 929 l 618 929 b 58 474 296 929 58 746 b 618 0 58 204 296 0 l 1085 0 l 1269 239 z m 953 1204 l 539 1108 l 539 993 l 953 1047 z "},"ć":{"ha":1282,"x_min":0,"x_max":0,"o":"m 618 239 b 346 461 461 239 346 329 b 618 688 346 594 463 688 l 1085 688 l 1269 929 l 618 929 b 58 474 296 929 58 746 b 618 0 58 204 296 0 l 1085 0 l 1269 239 z m 953 1204 l 539 1108 l 539 993 l 953 1047 z "},"Ċ":{"ha":1282,"x_min":0,"x_max":0,"o":"m 618 239 b 346 461 461 239 346 329 b 618 688 346 594 463 688 l 1085 688 l 1269 929 l 618 929 b 58 474 296 929 58 746 b 618 0 58 204 296 0 l 1085 0 l 1269 239 z m 601 1118 b 719 1017 601 1054 654 1017 b 839 1118 786 1017 839 1054 b 719 1222 839 1185 786 1222 b 601 1118 654 1222 601 1185 z "},"ċ":{"ha":1282,"x_min":0,"x_max":0,"o":"m 618 239 b 346 461 461 239 346 329 b 618 688 346 594 463 688 l 1085 688 l 1269 929 l 618 929 b 58 474 296 929 58 746 b 618 0 58 204 296 0 l 1085 0 l 1269 239 z m 601 1118 b 719 1017 601 1054 654 1017 b 839 1118 786 1017 839 1054 b 719 1222 839 1185 786 1222 b 601 1118 654 1222 601 1185 z "},"Č":{"ha":1282,"x_min":0,"x_max":0,"o":"m 618 239 b 346 461 461 239 346 329 b 618 688 346 594 463 688 l 1085 688 l 1269 929 l 618 929 b 58 474 296 929 58 746 b 618 0 58 204 296 0 l 1085 0 l 1269 239 z m 617 993 l 799 993 l 929 1204 l 792 1204 l 715 1064 l 703 1064 l 625 1204 l 486 1204 z "},"č":{"ha":1282,"x_min":0,"x_max":0,"o":"m 618 239 b 346 461 461 239 346 329 b 618 688 346 594 463 688 l 1085 688 l 1269 929 l 618 929 b 58 474 296 929 58 746 b 618 0 58 204 296 0 l 1085 0 l 1269 239 z m 617 993 l 799 993 l 929 1204 l 792 1204 l 715 1064 l 703 1064 l 625 1204 l 486 1204 z "},"Ď":{"ha":1328,"x_min":0,"x_max":0,"o":"m 1269 474 b 710 929 1269 742 1035 929 l 271 929 l 88 688 l 710 688 b 985 461 865 688 985 592 b 710 239 985 328 869 239 l 376 239 l 376 579 l 88 579 l 88 0 l 710 0 b 1269 474 1032 0 1269 204 z m 481 993 l 663 993 l 793 1204 l 656 1204 l 579 1064 l 567 1064 l 489 1204 l 350 1204 z "},"ď":{"ha":1328,"x_min":0,"x_max":0,"o":"m 1269 474 b 710 929 1269 742 1035 929 l 271 929 l 88 688 l 710 688 b 985 461 865 688 985 592 b 710 239 985 328 869 239 l 376 239 l 376 579 l 88 579 l 88 0 l 710 0 b 1269 474 1032 0 1269 204 z m 481 993 l 663 993 l 793 1204 l 656 1204 l 579 1064 l 567 1064 l 489 1204 l 350 1204 z "},"Đ":{"ha":1446,"x_min":0,"x_max":0,"o":"m 164 576 l 0 365 l 207 365 l 207 0 l 828 0 b 1388 474 1150 0 1388 204 b 828 929 1388 742 1153 929 l 389 929 l 207 688 l 828 688 b 1103 461 983 688 1103 592 b 828 239 1103 328 988 239 l 494 239 l 494 365 l 665 365 l 829 576 z "},"đ":{"ha":1446,"x_min":0,"x_max":0,"o":"m 164 576 l 0 365 l 207 365 l 207 0 l 828 0 b 1388 474 1150 0 1388 204 b 828 929 1388 742 1153 929 l 389 929 l 207 688 l 828 688 b 1103 461 983 688 1103 592 b 828 239 1103 328 988 239 l 494 239 l 494 365 l 665 365 l 829 576 z "},"Ē":{"ha":1178,"x_min":0,"x_max":0,"o":"m 376 239 l 376 365 l 947 365 l 1113 576 l 376 576 l 376 688 l 978 688 l 1164 929 l 88 929 l 88 0 l 982 0 l 1167 239 z m 794 1157 l 381 1157 l 381 1042 l 794 1042 z "},"ē":{"ha":1178,"x_min":0,"x_max":0,"o":"m 376 239 l 376 365 l 947 365 l 1113 576 l 376 576 l 376 688 l 978 688 l 1164 929 l 88 929 l 88 0 l 982 0 l 1167 239 z m 794 1157 l 381 1157 l 381 1042 l 794 1042 z "},"Ė":{"ha":1178,"x_min":0,"x_max":0,"o":"m 376 239 l 376 365 l 947 365 l 1113 576 l 376 576 l 376 688 l 978 688 l 1164 929 l 88 929 l 88 0 l 982 0 l 1167 239 z m 493 1118 b 611 1017 493 1054 546 1017 b 731 1118 678 1017 731 1054 b 611 1222 731 1185 678 1222 b 493 1118 546 1222 493 1185 z "},"ė":{"ha":1178,"x_min":0,"x_max":0,"o":"m 376 239 l 376 365 l 947 365 l 1113 576 l 376 576 l 376 688 l 978 688 l 1164 929 l 88 929 l 88 0 l 982 0 l 1167 239 z m 493 1118 b 611 1017 493 1054 546 1017 b 731 1118 678 1017 731 1054 b 611 1222 731 1185 678 1222 b 493 1118 546 1222 493 1185 z "},"Ę":{"ha":1178,"x_min":0,"x_max":0,"o":"m 1036 -169 l 906 -169 b 875 -147 886 -169 875 -160 b 885 -122 875 -135 876 -133 l 1167 239 l 376 239 l 376 365 l 947 365 l 1113 576 l 376 576 l 376 688 l 978 688 l 1164 929 l 88 929 l 88 0 l 876 0 l 796 -104 b 744 -226 757 -153 744 -186 b 910 -347 744 -292 807 -347 l 1036 -347 z "},"ę":{"ha":1178,"x_min":0,"x_max":0,"o":"m 1036 -169 l 906 -169 b 875 -147 886 -169 875 -160 b 885 -122 875 -135 876 -133 l 1167 239 l 376 239 l 376 365 l 947 365 l 1113 576 l 376 576 l 376 688 l 978 688 l 1164 929 l 88 929 l 88 0 l 876 0 l 796 -104 b 744 -226 757 -153 744 -186 b 910 -347 744 -292 807 -347 l 1036 -347 z "},"Ě":{"ha":1178,"x_min":0,"x_max":0,"o":"m 376 239 l 376 365 l 947 365 l 1113 576 l 376 576 l 376 688 l 978 688 l 1164 929 l 88 929 l 88 0 l 982 0 l 1167 239 z m 510 993 l 692 993 l 822 1204 l 685 1204 l 608 1064 l 596 1064 l 518 1204 l 379 1204 z "},"ě":{"ha":1178,"x_min":0,"x_max":0,"o":"m 376 239 l 376 365 l 947 365 l 1113 576 l 376 576 l 376 688 l 978 688 l 1164 929 l 88 929 l 88 0 l 982 0 l 1167 239 z m 510 993 l 692 993 l 822 1204 l 685 1204 l 608 1064 l 596 1064 l 518 1204 l 379 1204 z "},"Ğ":{"ha":1333,"x_min":0,"x_max":0,"o":"m 489 374 l 969 374 l 969 239 l 618 239 b 344 461 458 239 344 326 b 618 688 344 593 463 688 l 1097 688 l 1283 929 l 618 929 b 58 474 296 929 58 746 b 618 0 58 204 296 0 l 1256 0 l 1256 581 l 661 581 z m 792 1204 b 722 1078 792 1163 776 1078 l 703 1078 b 625 1204 642 1078 625 1163 l 486 1204 b 665 993 486 1132 533 993 l 751 993 b 929 1204 883 993 929 1132 z "},"ğ":{"ha":1333,"x_min":0,"x_max":0,"o":"m 489 374 l 969 374 l 969 239 l 618 239 b 344 461 458 239 344 326 b 618 688 344 593 463 688 l 1097 688 l 1283 929 l 618 929 b 58 474 296 929 58 746 b 618 0 58 204 296 0 l 1256 0 l 1256 581 l 661 581 z m 792 1204 b 722 1078 792 1163 776 1078 l 703 1078 b 625 1204 642 1078 625 1163 l 486 1204 b 665 993 486 1132 533 993 l 751 993 b 929 1204 883 993 929 1132 z "},"Ġ":{"ha":1333,"x_min":0,"x_max":0,"o":"m 489 374 l 969 374 l 969 239 l 618 239 b 344 461 458 239 344 326 b 618 688 344 593 463 688 l 1097 688 l 1283 929 l 618 929 b 58 474 296 929 58 746 b 618 0 58 204 296 0 l 1256 0 l 1256 581 l 661 581 z m 601 1118 b 719 1017 601 1054 654 1017 b 839 1118 786 1017 839 1054 b 719 1222 839 1185 786 1222 b 601 1118 654 1222 601 1185 z "},"ġ":{"ha":1333,"x_min":0,"x_max":0,"o":"m 489 374 l 969 374 l 969 239 l 618 239 b 344 461 458 239 344 326 b 618 688 344 593 463 688 l 1097 688 l 1283 929 l 618 929 b 58 474 296 929 58 746 b 618 0 58 204 296 0 l 1256 0 l 1256 581 l 661 581 z m 601 1118 b 719 1017 601 1054 654 1017 b 839 1118 786 1017 839 1054 b 719 1222 839 1185 786 1222 b 601 1118 654 1222 601 1185 z "},"Ģ":{"ha":1333,"x_min":0,"x_max":0,"o":"m 489 374 l 969 374 l 969 239 l 618 239 b 344 461 458 239 344 326 b 618 688 344 593 463 688 l 1097 688 l 1283 929 l 618 929 b 58 474 296 929 58 746 b 618 0 58 204 296 0 l 1256 0 l 1256 581 l 661 581 z m 650 -43 l 650 -354 l 750 -354 l 865 -43 z "},"ģ":{"ha":1333,"x_min":0,"x_max":0,"o":"m 489 374 l 969 374 l 969 239 l 618 239 b 344 461 458 239 344 326 b 618 688 344 593 463 688 l 1097 688 l 1283 929 l 618 929 b 58 474 296 929 58 746 b 618 0 58 204 296 0 l 1256 0 l 1256 581 l 661 581 z m 650 -43 l 650 -354 l 750 -354 l 865 -43 z "},"Ħ":{"ha":1304,"x_min":0,"x_max":0,"o":"m 1215 929 l 929 929 l 929 828 l 376 828 l 376 929 l 88 929 l 88 0 l 376 0 l 376 358 l 929 358 l 929 0 l 1215 0 z m 376 600 l 376 728 l 929 728 l 929 600 z "},"ħ":{"ha":1304,"x_min":0,"x_max":0,"o":"m 1215 929 l 929 929 l 929 828 l 376 828 l 376 929 l 88 929 l 88 0 l 376 0 l 376 358 l 929 358 l 929 0 l 1215 0 z m 376 600 l 376 728 l 929 728 l 929 600 z "},"Ī":{"ha":471,"x_min":0,"x_max":0,"o":"m 379 929 l 92 929 l 92 0 l 379 0 z m 443 1157 l 29 1157 l 29 1042 l 443 1042 z "},"ī":{"ha":471,"x_min":0,"x_max":0,"o":"m 379 929 l 92 929 l 92 0 l 379 0 z m 443 1157 l 29 1157 l 29 1042 l 443 1042 z "},"Ĭ":{"ha":471,"x_min":0,"x_max":0,"o":"m 379 929 l 92 929 l 92 0 l 379 0 z m 319 1204 b 250 1078 319 1163 304 1078 l 231 1078 b 153 1204 169 1078 153 1163 l 14 1204 b 193 993 14 1132 61 993 l 279 993 b 457 1204 411 993 457 1132 z "},"ĭ":{"ha":471,"x_min":0,"x_max":0,"o":"m 379 929 l 92 929 l 92 0 l 379 0 z m 319 1204 b 250 1078 319 1163 304 1078 l 231 1078 b 153 1204 169 1078 153 1163 l 14 1204 b 193 993 14 1132 61 993 l 279 993 b 457 1204 411 993 457 1132 z "},"Į":{"ha":471,"x_min":0,"x_max":0,"o":"m 379 -169 l 243 -169 b 213 -147 224 -169 213 -160 b 228 -122 213 -139 217 -131 l 379 0 l 379 929 l 92 929 l 92 0 l 265 0 l 138 -104 b 68 -226 89 -143 68 -186 b 233 -347 68 -292 132 -347 l 379 -347 z "},"į":{"ha":471,"x_min":0,"x_max":0,"o":"m 379 -169 l 243 -169 b 213 -147 224 -169 213 -160 b 228 -122 213 -139 217 -131 l 379 0 l 379 929 l 92 929 l 92 0 l 265 0 l 138 -104 b 68 -226 89 -143 68 -186 b 233 -347 68 -292 132 -347 l 379 -347 z "},"İ":{"ha":471,"x_min":0,"x_max":0,"o":"m 379 929 l 92 929 l 92 0 l 379 0 z m 118 1118 b 236 1017 118 1054 171 1017 b 356 1118 303 1017 356 1054 b 236 1222 356 1185 303 1222 b 118 1118 171 1222 118 1185 z "},"ı":{"ha":471,"x_min":0,"x_max":0,"o":"m 379 929 l 92 929 l 92 0 l 379 0 z "},"Ĳ":{"ha":1488,"x_min":0,"x_max":0,"o":"m 379 929 l 92 929 l 92 0 l 379 0 z m 674 239 l 486 0 l 833 0 b 1414 422 1219 0 1414 140 l 1414 929 l 1125 929 l 1125 422 b 833 239 1125 289 1053 239 z "},"ĳ":{"ha":1488,"x_min":0,"x_max":0,"o":"m 379 929 l 92 929 l 92 0 l 379 0 z m 674 239 l 486 0 l 833 0 b 1414 422 1219 0 1414 140 l 1414 929 l 1125 929 l 1125 422 b 833 239 1125 289 1053 239 z "},"Ķ":{"ha":1267,"x_min":0,"x_max":0,"o":"m 875 307 b 631 492 756 404 683 456 b 871 663 690 528 747 569 l 1226 929 l 810 929 l 542 703 b 371 551 457 632 407 585 b 376 714 374 600 376 657 l 376 929 l 88 929 l 88 0 l 376 0 l 376 267 b 372 400 376 311 374 357 b 544 244 404 368 449 328 l 825 0 l 1260 0 z m 485 -43 l 485 -354 l 585 -354 l 700 -43 z "},"ķ":{"ha":1267,"x_min":0,"x_max":0,"o":"m 875 307 b 631 492 756 404 683 456 b 871 663 690 528 747 569 l 1226 929 l 810 929 l 542 703 b 371 551 457 632 407 585 b 376 714 374 600 376 657 l 376 929 l 88 929 l 88 0 l 376 0 l 376 267 b 372 400 376 311 374 357 b 544 244 404 368 449 328 l 825 0 l 1260 0 z m 485 -43 l 485 -354 l 585 -354 l 700 -43 z "},"Ĺ":{"ha":1103,"x_min":0,"x_max":0,"o":"m 375 239 l 375 929 l 88 929 l 88 0 l 908 0 l 1094 239 z m 507 1204 l 93 1108 l 93 993 l 507 1047 z "},"ĺ":{"ha":1103,"x_min":0,"x_max":0,"o":"m 375 239 l 375 929 l 88 929 l 88 0 l 908 0 l 1094 239 z m 507 1204 l 93 1108 l 93 993 l 507 1047 z "},"Ļ":{"ha":1103,"x_min":0,"x_max":0,"o":"m 375 239 l 375 929 l 88 929 l 88 0 l 908 0 l 1094 239 z m 378 -43 l 378 -354 l 478 -354 l 593 -43 z "},"ļ":{"ha":1103,"x_min":0,"x_max":0,"o":"m 375 239 l 375 929 l 88 929 l 88 0 l 908 0 l 1094 239 z m 378 -43 l 378 -354 l 478 -354 l 593 -43 z "},"Ľ":{"ha":1103,"x_min":0,"x_max":0,"o":"m 375 239 l 375 929 l 88 929 l 88 0 l 908 0 l 1094 239 z m 575 929 l 575 557 l 694 557 l 832 929 z "},"ľ":{"ha":1103,"x_min":0,"x_max":0,"o":"m 375 239 l 375 929 l 88 929 l 88 0 l 908 0 l 1094 239 z m 575 929 l 575 557 l 694 557 l 832 929 z "},"Ł":{"ha":1103,"x_min":0,"x_max":0,"o":"m 375 239 l 375 396 l 665 396 l 829 606 l 375 606 l 375 929 l 88 929 l 88 0 l 908 0 l 1094 239 z "},"ł":{"ha":1103,"x_min":0,"x_max":0,"o":"m 375 239 l 375 396 l 665 396 l 829 606 l 375 606 l 375 929 l 88 929 l 88 0 l 908 0 l 1094 239 z "},"Ń":{"ha":1269,"x_min":0,"x_max":0,"o":"m 1029 -15 b 1188 160 1113 -15 1188 36 l 1188 929 l 925 929 l 925 383 l 356 894 b 240 944 310 936 275 944 b 83 771 158 944 83 894 l 83 0 l 344 0 l 344 546 l 914 35 b 1029 -15 958 -7 993 -15 z m 854 1204 l 440 1108 l 440 993 l 854 1047 z "},"ń":{"ha":1269,"x_min":0,"x_max":0,"o":"m 1029 -15 b 1188 160 1113 -15 1188 36 l 1188 929 l 925 929 l 925 383 l 356 894 b 240 944 310 936 275 944 b 83 771 158 944 83 894 l 83 0 l 344 0 l 344 546 l 914 35 b 1029 -15 958 -7 993 -15 z m 854 1204 l 440 1108 l 440 993 l 854 1047 z "},"Ņ":{"ha":1269,"x_min":0,"x_max":0,"o":"m 1029 -15 b 1188 160 1113 -15 1188 36 l 1188 929 l 925 929 l 925 383 l 356 894 b 240 944 310 936 275 944 b 83 771 158 944 83 894 l 83 0 l 344 0 l 344 546 l 914 35 b 1029 -15 958 -7 993 -15 z m 488 -43 l 488 -354 l 588 -354 l 703 -43 z "},"ņ":{"ha":1269,"x_min":0,"x_max":0,"o":"m 1029 -15 b 1188 160 1113 -15 1188 36 l 1188 929 l 925 929 l 925 383 l 356 894 b 240 944 310 936 275 944 b 83 771 158 944 83 894 l 83 0 l 344 0 l 344 546 l 914 35 b 1029 -15 958 -7 993 -15 z m 488 -43 l 488 -354 l 588 -354 l 703 -43 z "},"Ň":{"ha":1269,"x_min":0,"x_max":0,"o":"m 1029 -15 b 1188 160 1113 -15 1188 36 l 1188 929 l 925 929 l 925 383 l 356 894 b 240 944 310 936 275 944 b 83 771 158 944 83 894 l 83 0 l 344 0 l 344 546 l 914 35 b 1029 -15 958 -7 993 -15 z m 543 993 l 725 993 l 856 1204 l 718 1204 l 642 1064 l 629 1064 l 551 1204 l 413 1204 z "},"ň":{"ha":1269,"x_min":0,"x_max":0,"o":"m 1029 -15 b 1188 160 1113 -15 1188 36 l 1188 929 l 925 929 l 925 383 l 356 894 b 240 944 310 936 275 944 b 83 771 158 944 83 894 l 83 0 l 344 0 l 344 546 l 914 35 b 1029 -15 958 -7 993 -15 z m 543 993 l 725 993 l 856 1204 l 718 1204 l 642 1064 l 629 1064 l 551 1204 l 413 1204 z "},"Ŋ":{"ha":1269,"x_min":0,"x_max":0,"o":"m 582 -114 l 396 -354 l 607 -354 b 1188 68 993 -354 1188 -212 l 1188 929 l 925 929 l 925 383 l 356 894 b 240 944 310 936 275 944 b 83 771 158 944 83 894 l 83 0 l 344 0 l 344 546 l 921 26 b 607 -114 901 -75 801 -114 z "},"ŋ":{"ha":1269,"x_min":0,"x_max":0,"o":"m 582 -114 l 396 -354 l 607 -354 b 1188 68 993 -354 1188 -212 l 1188 929 l 925 929 l 925 383 l 356 894 b 240 944 310 936 275 944 b 83 771 158 944 83 894 l 83 0 l 344 0 l 344 546 l 921 26 b 607 -114 901 -75 801 -114 z "},"Ō":{"ha":1475,"x_min":0,"x_max":0,"o":"m 738 944 b 58 465 285 944 58 797 b 738 -15 58 133 285 -15 b 1417 465 1189 -15 1417 133 b 738 944 1417 797 1189 944 z m 738 226 b 344 465 449 226 344 265 b 738 703 344 665 449 703 b 1131 465 1026 703 1131 665 b 738 226 1131 265 1026 226 z m 943 1157 l 529 1157 l 529 1042 l 943 1042 z "},"ō":{"ha":1475,"x_min":0,"x_max":0,"o":"m 738 944 b 58 465 285 944 58 797 b 738 -15 58 133 285 -15 b 1417 465 1189 -15 1417 133 b 738 944 1417 797 1189 944 z m 738 226 b 344 465 449 226 344 265 b 738 703 344 665 449 703 b 1131 465 1026 703 1131 665 b 738 226 1131 265 1026 226 z m 943 1157 l 529 1157 l 529 1042 l 943 1042 z "},"Ő":{"ha":1475,"x_min":0,"x_max":0,"o":"m 738 944 b 58 465 285 944 58 797 b 738 -15 58 133 285 -15 b 1417 465 1189 -15 1417 133 b 738 944 1417 797 1189 944 z m 738 226 b 344 465 449 226 344 265 b 738 703 344 665 449 703 b 1131 465 1026 703 1131 665 b 738 226 1131 265 1026 226 z m 1008 1204 l 835 1204 l 765 1007 l 871 1007 z m 756 1204 l 581 1204 l 513 1007 l 617 1007 z "},"ő":{"ha":1475,"x_min":0,"x_max":0,"o":"m 738 944 b 58 465 285 944 58 797 b 738 -15 58 133 285 -15 b 1417 465 1189 -15 1417 133 b 738 944 1417 797 1189 944 z m 738 226 b 344 465 449 226 344 265 b 738 703 344 665 449 703 b 1131 465 1026 703 1131 665 b 738 226 1131 265 1026 226 z m 1008 1204 l 835 1204 l 765 1007 l 871 1007 z m 756 1204 l 581 1204 l 513 1007 l 617 1007 z "},"Œ":{"ha":2092,"x_min":0,"x_max":0,"o":"m 1289 239 l 1289 365 l 1861 365 l 2025 576 l 1289 576 l 1289 688 l 1892 688 l 2076 929 l 1001 929 b 738 944 936 939 846 944 b 58 465 285 944 58 797 b 738 -15 58 133 285 -15 b 1001 0 846 -15 936 -10 l 1896 0 l 2081 239 z m 738 226 b 344 465 449 226 344 265 b 738 703 344 665 449 703 b 1001 676 853 703 940 697 l 1001 253 b 738 226 940 233 853 226 z "},"œ":{"ha":2092,"x_min":0,"x_max":0,"o":"m 1289 239 l 1289 365 l 1861 365 l 2025 576 l 1289 576 l 1289 688 l 1892 688 l 2076 929 l 1001 929 b 738 944 936 939 846 944 b 58 465 285 944 58 797 b 738 -15 58 133 285 -15 b 1001 0 846 -15 936 -10 l 1896 0 l 2081 239 z m 738 226 b 344 465 449 226 344 265 b 738 703 344 665 449 703 b 1001 676 853 703 940 697 l 1001 253 b 738 226 940 233 853 226 z "},"Ŕ":{"ha":1421,"x_min":0,"x_max":0,"o":"m 1235 181 b 1104 303 1171 246 1136 279 b 1347 597 1257 333 1347 453 b 869 929 1347 863 1081 929 l 272 929 l 85 688 l 893 688 b 1051 579 992 688 1051 651 b 893 475 1051 515 982 475 l 85 475 l 85 0 l 372 0 l 372 246 l 814 246 l 1021 0 l 1406 0 z m 918 1204 l 504 1108 l 504 993 l 918 1047 z "},"ŕ":{"ha":1421,"x_min":0,"x_max":0,"o":"m 1235 181 b 1104 303 1171 246 1136 279 b 1347 597 1257 333 1347 453 b 869 929 1347 863 1081 929 l 272 929 l 85 688 l 893 688 b 1051 579 992 688 1051 651 b 893 475 1051 515 982 475 l 85 475 l 85 0 l 372 0 l 372 246 l 814 246 l 1021 0 l 1406 0 z m 918 1204 l 504 1108 l 504 993 l 918 1047 z "},"Ŗ":{"ha":1421,"x_min":0,"x_max":0,"o":"m 1235 181 b 1104 303 1171 246 1136 279 b 1347 597 1257 333 1347 453 b 869 929 1347 863 1081 929 l 272 929 l 85 688 l 893 688 b 1051 579 992 688 1051 651 b 893 475 1051 515 982 475 l 85 475 l 85 0 l 372 0 l 372 246 l 814 246 l 1021 0 l 1406 0 z m 576 -43 l 576 -354 l 676 -354 l 792 -43 z "},"ŗ":{"ha":1421,"x_min":0,"x_max":0,"o":"m 1235 181 b 1104 303 1171 246 1136 279 b 1347 597 1257 333 1347 453 b 869 929 1347 863 1081 929 l 272 929 l 85 688 l 893 688 b 1051 579 992 688 1051 651 b 893 475 1051 515 982 475 l 85 475 l 85 0 l 372 0 l 372 246 l 814 246 l 1021 0 l 1406 0 z m 576 -43 l 576 -354 l 676 -354 l 792 -43 z "},"Ř":{"ha":1421,"x_min":0,"x_max":0,"o":"m 1235 181 b 1104 303 1171 246 1136 279 b 1347 597 1257 333 1347 453 b 869 929 1347 863 1081 929 l 272 929 l 85 688 l 893 688 b 1051 579 992 688 1051 651 b 893 475 1051 515 982 475 l 85 475 l 85 0 l 372 0 l 372 246 l 814 246 l 1021 0 l 1406 0 z m 579 993 l 761 993 l 892 1204 l 754 1204 l 678 1064 l 665 1064 l 588 1204 l 449 1204 z "},"ř":{"ha":1421,"x_min":0,"x_max":0,"o":"m 1235 181 b 1104 303 1171 246 1136 279 b 1347 597 1257 333 1347 453 b 869 929 1347 863 1081 929 l 272 929 l 85 688 l 893 688 b 1051 579 992 688 1051 651 b 893 475 1051 515 982 475 l 85 475 l 85 0 l 372 0 l 372 246 l 814 246 l 1021 0 l 1406 0 z m 579 993 l 761 993 l 892 1204 l 754 1204 l 678 1064 l 665 1064 l 588 1204 l 449 1204 z "},"Ś":{"ha":1338,"x_min":0,"x_max":0,"o":"m 443 558 b 344 624 376 558 344 576 b 443 688 344 671 376 688 l 1088 688 l 1272 929 l 465 929 b 67 640 183 929 67 815 b 415 374 67 481 176 374 l 921 374 b 1019 307 989 374 1019 354 b 921 239 1019 258 989 239 l 218 239 l 33 0 l 899 0 b 1297 304 1182 0 1297 114 b 949 558 1297 474 1175 558 z m 901 1204 l 488 1108 l 488 993 l 901 1047 z "},"ś":{"ha":1338,"x_min":0,"x_max":0,"o":"m 443 558 b 344 624 376 558 344 576 b 443 688 344 671 376 688 l 1088 688 l 1272 929 l 465 929 b 67 640 183 929 67 815 b 415 374 67 481 176 374 l 921 374 b 1019 307 989 374 1019 354 b 921 239 1019 258 989 239 l 218 239 l 33 0 l 899 0 b 1297 304 1182 0 1297 114 b 949 558 1297 474 1175 558 z m 901 1204 l 488 1108 l 488 993 l 901 1047 z "},"Ş":{"ha":1338,"x_min":0,"x_max":0,"o":"m 443 558 b 344 624 376 558 344 576 b 443 688 344 671 376 688 l 1088 688 l 1272 929 l 465 929 b 67 640 183 929 67 815 b 415 374 67 481 176 374 l 921 374 b 1019 307 989 374 1019 354 b 921 239 1019 258 989 239 l 218 239 l 33 0 l 899 0 b 1297 304 1182 0 1297 114 b 949 558 1297 474 1175 558 z m 561 -43 l 561 -354 l 661 -354 l 775 -43 z "},"ş":{"ha":1338,"x_min":0,"x_max":0,"o":"m 443 558 b 344 624 376 558 344 576 b 443 688 344 671 376 688 l 1088 688 l 1272 929 l 465 929 b 67 640 183 929 67 815 b 415 374 67 481 176 374 l 921 374 b 1019 307 989 374 1019 354 b 921 239 1019 258 989 239 l 218 239 l 33 0 l 899 0 b 1297 304 1182 0 1297 114 b 949 558 1297 474 1175 558 z m 561 -43 l 561 -354 l 661 -354 l 775 -43 z "},"Š":{"ha":1338,"x_min":0,"x_max":0,"o":"m 443 558 b 344 624 376 558 344 576 b 443 688 344 671 376 688 l 1088 688 l 1272 929 l 465 929 b 67 640 183 929 67 815 b 415 374 67 481 176 374 l 921 374 b 1019 307 989 374 1019 354 b 921 239 1019 258 989 239 l 218 239 l 33 0 l 899 0 b 1297 304 1182 0 1297 114 b 949 558 1297 474 1175 558 z m 583 993 l 765 993 l 896 1204 l 758 1204 l 682 1064 l 669 1064 l 592 1204 l 453 1204 z "},"š":{"ha":1338,"x_min":0,"x_max":0,"o":"m 443 558 b 344 624 376 558 344 576 b 443 688 344 671 376 688 l 1088 688 l 1272 929 l 465 929 b 67 640 183 929 67 815 b 415 374 67 481 176 374 l 921 374 b 1019 307 989 374 1019 354 b 921 239 1019 258 989 239 l 218 239 l 33 0 l 899 0 b 1297 304 1182 0 1297 114 b 949 558 1297 474 1175 558 z m 583 993 l 765 993 l 896 1204 l 758 1204 l 682 1064 l 669 1064 l 592 1204 l 453 1204 z "},"Ť":{"ha":1242,"x_min":0,"x_max":0,"o":"m 186 929 l 0 688 l 436 688 l 436 0 l 724 0 l 724 688 l 1056 688 l 1242 929 z m 490 993 l 672 993 l 803 1204 l 665 1204 l 589 1064 l 576 1064 l 499 1204 l 360 1204 z "},"ť":{"ha":1242,"x_min":0,"x_max":0,"o":"m 186 929 l 0 688 l 436 688 l 436 0 l 724 0 l 724 688 l 1056 688 l 1242 929 z m 490 993 l 672 993 l 803 1204 l 665 1204 l 589 1064 l 576 1064 l 499 1204 l 360 1204 z "},"Ŧ":{"ha":1242,"x_min":0,"x_max":0,"o":"m 356 560 l 214 381 l 436 381 l 436 0 l 724 0 l 724 381 l 815 381 l 956 560 l 724 560 l 724 688 l 1056 688 l 1242 929 l 186 929 l 0 688 l 436 688 l 436 560 z "},"ŧ":{"ha":1242,"x_min":0,"x_max":0,"o":"m 356 560 l 214 381 l 436 381 l 436 0 l 724 0 l 724 381 l 815 381 l 956 560 l 724 560 l 724 688 l 1056 688 l 1242 929 l 186 929 l 0 688 l 436 688 l 436 560 z "},"Ũ":{"ha":1369,"x_min":0,"x_max":0,"o":"m 1294 929 l 1006 929 l 1006 406 b 715 224 1006 275 936 224 b 361 406 419 224 361 268 l 361 929 l 75 929 l 75 406 b 715 -15 75 125 268 -15 b 1294 406 1101 -15 1294 125 z m 785 1017 b 890 1058 826 1017 864 1028 l 890 1172 b 785 1122 867 1144 828 1122 b 583 1181 713 1122 656 1181 b 476 1139 542 1181 503 1168 l 476 1024 b 583 1074 500 1051 540 1074 b 785 1017 656 1074 714 1017 z "},"ũ":{"ha":1369,"x_min":0,"x_max":0,"o":"m 1294 929 l 1006 929 l 1006 406 b 715 224 1006 275 936 224 b 361 406 419 224 361 268 l 361 929 l 75 929 l 75 406 b 715 -15 75 125 268 -15 b 1294 406 1101 -15 1294 125 z m 785 1017 b 890 1058 826 1017 864 1028 l 890 1172 b 785 1122 867 1144 828 1122 b 583 1181 713 1122 656 1181 b 476 1139 542 1181 503 1168 l 476 1024 b 583 1074 500 1051 540 1074 b 785 1017 656 1074 714 1017 z "},"Ū":{"ha":1369,"x_min":0,"x_max":0,"o":"m 1294 929 l 1006 929 l 1006 406 b 715 224 1006 275 936 224 b 361 406 419 224 361 268 l 361 929 l 75 929 l 75 406 b 715 -15 75 125 268 -15 b 1294 406 1101 -15 1294 125 z m 890 1157 l 476 1157 l 476 1042 l 890 1042 z "},"ū":{"ha":1369,"x_min":0,"x_max":0,"o":"m 1294 929 l 1006 929 l 1006 406 b 715 224 1006 275 936 224 b 361 406 419 224 361 268 l 361 929 l 75 929 l 75 406 b 715 -15 75 125 268 -15 b 1294 406 1101 -15 1294 125 z m 890 1157 l 476 1157 l 476 1042 l 890 1042 z "},"Ŭ":{"ha":1369,"x_min":0,"x_max":0,"o":"m 1294 929 l 1006 929 l 1006 406 b 715 224 1006 275 936 224 b 361 406 419 224 361 268 l 361 929 l 75 929 l 75 406 b 715 -15 75 125 268 -15 b 1294 406 1101 -15 1294 125 z m 768 1204 b 699 1078 768 1163 753 1078 l 679 1078 b 601 1204 618 1078 601 1163 l 463 1204 b 642 993 463 1132 510 993 l 728 993 b 906 1204 860 993 906 1132 z "},"ŭ":{"ha":1369,"x_min":0,"x_max":0,"o":"m 1294 929 l 1006 929 l 1006 406 b 715 224 1006 275 936 224 b 361 406 419 224 361 268 l 361 929 l 75 929 l 75 406 b 715 -15 75 125 268 -15 b 1294 406 1101 -15 1294 125 z m 768 1204 b 699 1078 768 1163 753 1078 l 679 1078 b 601 1204 618 1078 601 1163 l 463 1204 b 642 993 463 1132 510 993 l 728 993 b 906 1204 860 993 906 1132 z "},"Ů":{"ha":1369,"x_min":0,"x_max":0,"o":"m 1294 929 l 1006 929 l 1006 406 b 715 224 1006 275 936 224 b 361 406 419 224 361 268 l 361 929 l 75 929 l 75 406 b 715 -15 75 125 268 -15 b 1294 406 1101 -15 1294 125 z m 749 1213 b 776 1188 768 1213 776 1204 l 776 1117 b 749 1092 776 1100 768 1092 l 618 1092 b 592 1117 601 1092 592 1100 l 592 1188 b 618 1213 592 1203 601 1213 z m 885 1196 b 740 1313 885 1274 836 1313 l 626 1313 b 483 1196 531 1313 483 1274 l 483 1108 b 626 993 483 1031 531 993 l 740 993 b 885 1108 836 993 885 1031 z "},"ů":{"ha":1369,"x_min":0,"x_max":0,"o":"m 1294 929 l 1006 929 l 1006 406 b 715 224 1006 275 936 224 b 361 406 419 224 361 268 l 361 929 l 75 929 l 75 406 b 715 -15 75 125 268 -15 b 1294 406 1101 -15 1294 125 z m 749 1213 b 776 1188 768 1213 776 1204 l 776 1117 b 749 1092 776 1100 768 1092 l 618 1092 b 592 1117 601 1092 592 1100 l 592 1188 b 618 1213 592 1203 601 1213 z m 885 1196 b 740 1313 885 1274 836 1313 l 626 1313 b 483 1196 531 1313 483 1274 l 483 1108 b 626 993 483 1031 531 993 l 740 993 b 885 1108 836 993 885 1031 z "},"Ű":{"ha":1369,"x_min":0,"x_max":0,"o":"m 1294 929 l 1006 929 l 1006 406 b 715 224 1006 275 936 224 b 361 406 419 224 361 268 l 361 929 l 75 929 l 75 406 b 715 -15 75 125 268 -15 b 1294 406 1101 -15 1294 125 z m 982 1204 l 808 1204 l 739 1007 l 844 1007 z m 729 1204 l 554 1204 l 486 1007 l 590 1007 z "},"ű":{"ha":1369,"x_min":0,"x_max":0,"o":"m 1294 929 l 1006 929 l 1006 406 b 715 224 1006 275 936 224 b 361 406 419 224 361 268 l 361 929 l 75 929 l 75 406 b 715 -15 75 125 268 -15 b 1294 406 1101 -15 1294 125 z m 982 1204 l 808 1204 l 739 1007 l 844 1007 z m 729 1204 l 554 1204 l 486 1007 l 590 1007 z "},"Ų":{"ha":1369,"x_min":0,"x_max":0,"o":"m 913 -169 l 776 -169 b 747 -147 757 -169 747 -160 b 761 -122 747 -139 750 -131 l 911 0 b 1294 406 1165 42 1294 178 l 1294 929 l 1006 929 l 1006 406 b 715 224 1006 275 936 224 b 361 406 419 224 361 268 l 361 929 l 75 929 l 75 406 b 715 -15 75 125 268 -15 b 782 -12 738 -15 760 -14 l 672 -104 b 601 -226 624 -143 601 -186 b 768 -347 601 -292 665 -347 l 913 -347 z "},"ų":{"ha":1369,"x_min":0,"x_max":0,"o":"m 913 -169 l 776 -169 b 747 -147 757 -169 747 -160 b 761 -122 747 -139 750 -131 l 911 0 b 1294 406 1165 42 1294 178 l 1294 929 l 1006 929 l 1006 406 b 715 224 1006 275 936 224 b 361 406 419 224 361 268 l 361 929 l 75 929 l 75 406 b 715 -15 75 125 268 -15 b 782 -12 738 -15 760 -14 l 672 -104 b 601 -226 624 -143 601 -186 b 768 -347 601 -292 665 -347 l 913 -347 z "},"Ŵ":{"ha":1750,"x_min":0,"x_max":0,"o":"m 1168 83 b 1326 -15 1203 22 1253 -15 b 1488 113 1399 -15 1463 26 l 1728 929 l 1447 929 l 1360 606 b 1296 350 1332 503 1311 424 b 1165 606 1267 413 1235 478 l 1042 840 b 875 944 993 932 944 944 b 711 840 807 944 760 932 l 586 607 b 456 350 522 486 486 415 b 393 606 442 425 422 501 l 306 929 l 18 929 l 254 113 b 415 -15 279 26 343 -15 b 574 83 490 -15 540 24 l 722 347 b 869 625 803 490 840 558 b 1019 346 901 558 939 489 z m 967 1204 l 785 1204 l 653 993 l 792 993 l 868 1133 l 881 1133 l 958 993 l 1096 993 z "},"ŵ":{"ha":1750,"x_min":0,"x_max":0,"o":"m 1168 83 b 1326 -15 1203 22 1253 -15 b 1488 113 1399 -15 1463 26 l 1728 929 l 1447 929 l 1360 606 b 1296 350 1332 503 1311 424 b 1165 606 1267 413 1235 478 l 1042 840 b 875 944 993 932 944 944 b 711 840 807 944 760 932 l 586 607 b 456 350 522 486 486 415 b 393 606 442 425 422 501 l 306 929 l 18 929 l 254 113 b 415 -15 279 26 343 -15 b 574 83 490 -15 540 24 l 722 347 b 869 625 803 490 840 558 b 1019 346 901 558 939 489 z m 967 1204 l 785 1204 l 653 993 l 792 993 l 868 1133 l 881 1133 l 958 993 l 1096 993 z "},"Ŷ":{"ha":1428,"x_min":0,"x_max":0,"o":"m 1057 929 l 846 672 b 729 525 779 592 747 551 b 603 671 710 553 632 638 l 381 929 l 11 929 l 578 308 l 578 0 l 867 0 l 867 307 l 1418 929 z m 826 1204 l 644 1204 l 513 993 l 651 993 l 728 1133 l 740 1133 l 818 993 l 956 993 z "},"ŷ":{"ha":1428,"x_min":0,"x_max":0,"o":"m 1057 929 l 846 672 b 729 525 779 592 747 551 b 603 671 710 553 632 638 l 381 929 l 11 929 l 578 308 l 578 0 l 867 0 l 867 307 l 1418 929 z m 826 1204 l 644 1204 l 513 993 l 651 993 l 728 1133 l 740 1133 l 818 993 l 956 993 z "},"Ÿ":{"ha":1428,"x_min":0,"x_max":0,"o":"m 1057 929 l 846 672 b 729 525 779 592 747 551 b 603 671 710 553 632 638 l 381 929 l 11 929 l 578 308 l 578 0 l 867 0 l 867 307 l 1418 929 z m 465 1118 b 583 1017 465 1054 518 1017 b 703 1118 650 1017 703 1054 b 583 1222 703 1185 650 1222 b 465 1118 518 1222 465 1185 z m 754 1118 b 872 1017 754 1054 808 1017 b 992 1118 939 1017 992 1054 b 872 1222 992 1185 939 1222 b 754 1118 808 1222 754 1185 z "},"Ź":{"ha":1249,"x_min":0,"x_max":0,"o":"m 1238 239 l 900 239 b 531 233 754 239 576 236 b 783 426 567 258 631 306 l 1126 699 b 1189 813 1165 728 1189 771 b 1056 929 1189 888 1128 929 l 199 929 l 15 688 l 388 688 b 707 693 572 688 657 689 b 451 499 672 668 606 622 l 113 232 b 50 117 74 201 50 160 b 183 0 50 42 111 0 l 1064 0 z m 831 1204 l 417 1108 l 417 993 l 831 1047 z "},"ź":{"ha":1249,"x_min":0,"x_max":0,"o":"m 1238 239 l 900 239 b 531 233 754 239 576 236 b 783 426 567 258 631 306 l 1126 699 b 1189 813 1165 728 1189 771 b 1056 929 1189 888 1128 929 l 199 929 l 15 688 l 388 688 b 707 693 572 688 657 689 b 451 499 672 668 606 622 l 113 232 b 50 117 74 201 50 160 b 183 0 50 42 111 0 l 1064 0 z m 831 1204 l 417 1108 l 417 993 l 831 1047 z "},"Ż":{"ha":1249,"x_min":0,"x_max":0,"o":"m 1238 239 l 900 239 b 531 233 754 239 576 236 b 783 426 567 258 631 306 l 1126 699 b 1189 813 1165 728 1189 771 b 1056 929 1189 888 1128 929 l 199 929 l 15 688 l 388 688 b 707 693 572 688 657 689 b 451 499 672 668 606 622 l 113 232 b 50 117 74 201 50 160 b 183 0 50 42 111 0 l 1064 0 z m 535 1118 b 653 1017 535 1054 588 1017 b 772 1118 719 1017 772 1054 b 653 1222 772 1185 719 1222 b 535 1118 588 1222 535 1185 z "},"ż":{"ha":1249,"x_min":0,"x_max":0,"o":"m 1238 239 l 900 239 b 531 233 754 239 576 236 b 783 426 567 258 631 306 l 1126 699 b 1189 813 1165 728 1189 771 b 1056 929 1189 888 1128 929 l 199 929 l 15 688 l 388 688 b 707 693 572 688 657 689 b 451 499 672 668 606 622 l 113 232 b 50 117 74 201 50 160 b 183 0 50 42 111 0 l 1064 0 z m 535 1118 b 653 1017 535 1054 588 1017 b 772 1118 719 1017 772 1054 b 653 1222 772 1185 719 1222 b 535 1118 588 1222 535 1185 z "},"Ž":{"ha":1249,"x_min":0,"x_max":0,"o":"m 1238 239 l 900 239 b 531 233 754 239 576 236 b 783 426 567 258 631 306 l 1126 699 b 1189 813 1165 728 1189 771 b 1056 929 1189 888 1128 929 l 199 929 l 15 688 l 388 688 b 707 693 572 688 657 689 b 451 499 672 668 606 622 l 113 232 b 50 117 74 201 50 160 b 183 0 50 42 111 0 l 1064 0 z m 546 993 l 728 993 l 858 1204 l 721 1204 l 644 1064 l 632 1064 l 554 1204 l 415 1204 z "},"ž":{"ha":1249,"x_min":0,"x_max":0,"o":"m 1238 239 l 900 239 b 531 233 754 239 576 236 b 783 426 567 258 631 306 l 1126 699 b 1189 813 1165 728 1189 771 b 1056 929 1189 888 1128 929 l 199 929 l 15 688 l 388 688 b 707 693 572 688 657 689 b 451 499 672 668 606 622 l 113 232 b 50 117 74 201 50 160 b 183 0 50 42 111 0 l 1064 0 z m 546 993 l 728 993 l 858 1204 l 721 1204 l 644 1064 l 632 1064 l 554 1204 l 415 1204 z "},"Ș":{"ha":1338,"x_min":0,"x_max":0,"o":"m 443 558 b 344 624 376 558 344 576 b 443 688 344 671 376 688 l 1088 688 l 1272 929 l 465 929 b 67 640 183 929 67 815 b 415 374 67 481 176 374 l 921 374 b 1019 307 989 374 1019 354 b 921 239 1019 258 989 239 l 218 239 l 33 0 l 899 0 b 1297 304 1182 0 1297 114 b 949 558 1297 474 1175 558 z m 561 -43 l 561 -354 l 661 -354 l 776 -43 z "},"ș":{"ha":1338,"x_min":0,"x_max":0,"o":"m 443 558 b 344 624 376 558 344 576 b 443 688 344 671 376 688 l 1088 688 l 1272 929 l 465 929 b 67 640 183 929 67 815 b 415 374 67 481 176 374 l 921 374 b 1019 307 989 374 1019 354 b 921 239 1019 258 989 239 l 218 239 l 33 0 l 899 0 b 1297 304 1182 0 1297 114 b 949 558 1297 474 1175 558 z m 561 -43 l 561 -354 l 661 -354 l 776 -43 z "},"Ț":{"ha":1242,"x_min":0,"x_max":0,"o":"m 186 929 l 0 688 l 436 688 l 436 0 l 724 0 l 724 688 l 1056 688 l 1242 929 z m 474 -43 l 474 -354 l 574 -354 l 689 -43 z "},"ț":{"ha":1242,"x_min":0,"x_max":0,"o":"m 186 929 l 0 688 l 436 688 l 436 0 l 724 0 l 724 688 l 1056 688 l 1242 929 z m 474 -43 l 474 -354 l 574 -354 l 689 -43 z "},"ˆ":{"ha":575,"x_min":0,"x_max":0,"o":"m 379 1204 l 197 1204 l 65 993 l 204 993 l 281 1133 l 293 1133 l 371 993 l 508 993 z "},"ˇ":{"ha":575,"x_min":0,"x_max":0,"o":"m 196 993 l 378 993 l 508 1204 l 371 1204 l 294 1064 l 282 1064 l 204 1204 l 65 1204 z "},"˘":{"ha":575,"x_min":0,"x_max":0,"o":"m 371 1204 b 301 1078 371 1163 356 1078 l 282 1078 b 204 1204 221 1078 204 1163 l 65 1204 b 244 993 65 1132 113 993 l 331 993 b 508 1204 463 993 508 1132 z "},"˙":{"ha":307,"x_min":0,"x_max":0,"o":"m 36 1118 b 154 1017 36 1054 89 1017 b 274 1118 221 1017 274 1054 b 154 1222 274 1185 221 1222 b 36 1118 89 1222 36 1185 z "},"˚":{"ha":532,"x_min":0,"x_max":0,"o":"m 331 1213 b 358 1188 350 1213 358 1204 l 358 1117 b 331 1092 358 1100 350 1092 l 200 1092 b 174 1117 183 1092 174 1100 l 174 1188 b 200 1213 174 1203 183 1213 z m 467 1196 b 322 1313 467 1274 418 1313 l 208 1313 b 65 1196 113 1313 65 1274 l 65 1108 b 208 993 65 1031 113 993 l 322 993 b 467 1108 418 993 467 1031 z "},"˛":{"ha":429,"x_min":0,"x_max":0,"o":"m 364 -169 l 229 -169 b 199 -147 208 -169 199 -160 b 213 -122 199 -139 203 -131 l 364 0 l 251 0 l 124 -104 b 54 -226 75 -143 54 -186 b 219 -347 54 -292 117 -347 l 364 -347 z "},"˜":{"ha":546,"x_min":0,"x_max":0,"o":"m 374 1017 b 479 1058 415 1017 453 1028 l 479 1172 b 374 1122 456 1144 417 1122 b 172 1181 301 1122 244 1181 b 65 1139 131 1181 92 1168 l 65 1024 b 172 1074 89 1051 129 1074 b 374 1017 244 1074 303 1017 z "},"˝":{"ha":628,"x_min":0,"x_max":0,"o":"m 601 1204 l 428 1204 l 358 1007 l 464 1007 z m 349 1204 l 174 1204 l 106 1007 l 210 1007 z "},"̦":{"ha":360,"x_min":0,"x_max":0,"o":"m 90 -43 l 90 -354 l 190 -354 l 306 -43 z "},"Ẁ":{"ha":1750,"x_min":0,"x_max":0,"o":"m 1168 83 b 1326 -15 1203 22 1253 -15 b 1488 113 1399 -15 1463 26 l 1728 929 l 1447 929 l 1360 606 b 1296 350 1332 503 1311 424 b 1165 606 1267 413 1235 478 l 1042 840 b 875 944 993 932 944 944 b 711 840 807 944 760 932 l 586 607 b 456 350 522 486 486 415 b 393 606 442 425 422 501 l 306 929 l 18 929 l 254 113 b 415 -15 279 26 343 -15 b 574 83 490 -15 540 24 l 722 347 b 869 625 803 490 840 558 b 1019 346 901 558 939 489 z m 1042 1108 l 628 1204 l 628 1047 l 1042 993 z "},"ẁ":{"ha":1750,"x_min":0,"x_max":0,"o":"m 1168 83 b 1326 -15 1203 22 1253 -15 b 1488 113 1399 -15 1463 26 l 1728 929 l 1447 929 l 1360 606 b 1296 350 1332 503 1311 424 b 1165 606 1267 413 1235 478 l 1042 840 b 875 944 993 932 944 944 b 711 840 807 944 760 932 l 586 607 b 456 350 522 486 486 415 b 393 606 442 425 422 501 l 306 929 l 18 929 l 254 113 b 415 -15 279 26 343 -15 b 574 83 490 -15 540 24 l 722 347 b 869 625 803 490 840 558 b 1019 346 901 558 939 489 z m 1042 1108 l 628 1204 l 628 1047 l 1042 993 z "},"Ẃ":{"ha":1750,"x_min":0,"x_max":0,"o":"m 1168 83 b 1326 -15 1203 22 1253 -15 b 1488 113 1399 -15 1463 26 l 1728 929 l 1447 929 l 1360 606 b 1296 350 1332 503 1311 424 b 1165 606 1267 413 1235 478 l 1042 840 b 875 944 993 932 944 944 b 711 840 807 944 760 932 l 586 607 b 456 350 522 486 486 415 b 393 606 442 425 422 501 l 306 929 l 18 929 l 254 113 b 415 -15 279 26 343 -15 b 574 83 490 -15 540 24 l 722 347 b 869 625 803 490 840 558 b 1019 346 901 558 939 489 z m 1121 1204 l 707 1108 l 707 993 l 1121 1047 z "},"ẃ":{"ha":1750,"x_min":0,"x_max":0,"o":"m 1168 83 b 1326 -15 1203 22 1253 -15 b 1488 113 1399 -15 1463 26 l 1728 929 l 1447 929 l 1360 606 b 1296 350 1332 503 1311 424 b 1165 606 1267 413 1235 478 l 1042 840 b 875 944 993 932 944 944 b 711 840 807 944 760 932 l 586 607 b 456 350 522 486 486 415 b 393 606 442 425 422 501 l 306 929 l 18 929 l 254 113 b 415 -15 279 26 343 -15 b 574 83 490 -15 540 24 l 722 347 b 869 625 803 490 840 558 b 1019 346 901 558 939 489 z m 1121 1204 l 707 1108 l 707 993 l 1121 1047 z "},"Ẅ":{"ha":1750,"x_min":0,"x_max":0,"o":"m 1168 83 b 1326 -15 1203 22 1253 -15 b 1488 113 1399 -15 1463 26 l 1728 929 l 1447 929 l 1360 606 b 1296 350 1332 503 1311 424 b 1165 606 1267 413 1235 478 l 1042 840 b 875 944 993 932 944 944 b 711 840 807 944 760 932 l 586 607 b 456 350 522 486 486 415 b 393 606 442 425 422 501 l 306 929 l 18 929 l 254 113 b 415 -15 279 26 343 -15 b 574 83 490 -15 540 24 l 722 347 b 869 625 803 490 840 558 b 1019 346 901 558 939 489 z m 613 1118 b 731 1017 613 1054 665 1017 b 850 1118 797 1017 850 1054 b 731 1222 850 1185 797 1222 b 613 1118 665 1222 613 1185 z m 901 1118 b 1019 1017 901 1054 956 1017 b 1139 1118 1086 1017 1139 1054 b 1019 1222 1139 1185 1086 1222 b 901 1118 956 1222 901 1185 z "},"ẅ":{"ha":1750,"x_min":0,"x_max":0,"o":"m 1168 83 b 1326 -15 1203 22 1253 -15 b 1488 113 1399 -15 1463 26 l 1728 929 l 1447 929 l 1360 606 b 1296 350 1332 503 1311 424 b 1165 606 1267 413 1235 478 l 1042 840 b 875 944 993 932 944 944 b 711 840 807 944 760 932 l 586 607 b 456 350 522 486 486 415 b 393 606 442 425 422 501 l 306 929 l 18 929 l 254 113 b 415 -15 279 26 343 -15 b 574 83 490 -15 540 24 l 722 347 b 869 625 803 490 840 558 b 1019 346 901 558 939 489 z m 613 1118 b 731 1017 613 1054 665 1017 b 850 1118 797 1017 850 1054 b 731 1222 850 1185 797 1222 b 613 1118 665 1222 613 1185 z m 901 1118 b 1019 1017 901 1054 956 1017 b 1139 1118 1086 1017 1139 1054 b 1019 1222 1139 1185 1086 1222 b 901 1118 956 1222 901 1185 z "},"Ỳ":{"ha":1428,"x_min":0,"x_max":0,"o":"m 1057 929 l 846 672 b 729 525 779 592 747 551 b 603 671 710 553 632 638 l 381 929 l 11 929 l 578 308 l 578 0 l 867 0 l 867 307 l 1418 929 z m 881 1108 l 467 1204 l 467 1047 l 881 993 z "},"ỳ":{"ha":1428,"x_min":0,"x_max":0,"o":"m 1057 929 l 846 672 b 729 525 779 592 747 551 b 603 671 710 553 632 638 l 381 929 l 11 929 l 578 308 l 578 0 l 867 0 l 867 307 l 1418 929 z m 881 1108 l 467 1204 l 467 1047 l 881 993 z "},"–":{"ha":868,"x_min":0,"x_max":0,"o":"m 161 560 l 21 381 l 708 381 l 849 560 z "},"—":{"ha":1393,"x_min":0,"x_max":0,"o":"m 161 560 l 21 381 l 1235 381 l 1375 560 z "},"‘":{"ha":304,"x_min":0,"x_max":0,"o":"m 281 557 l 281 929 l 160 929 l 24 557 z "},"’":{"ha":304,"x_min":0,"x_max":0,"o":"m 24 929 l 24 557 l 143 557 l 281 929 z "},"‚":{"ha":304,"x_min":0,"x_max":0,"o":"m 24 239 l 24 -133 l 143 -133 l 281 239 z "},"‛":{"ha":304,"x_min":0,"x_max":0,"o":"m 24 929 l 160 557 l 281 557 l 281 929 z "},"“":{"ha":619,"x_min":0,"x_max":0,"o":"m 596 557 l 596 929 l 476 929 l 339 557 z m 281 557 l 281 929 l 160 929 l 24 557 z "},"”":{"ha":619,"x_min":0,"x_max":0,"o":"m 339 929 l 339 557 l 458 557 l 596 929 z m 24 929 l 24 557 l 143 557 l 281 929 z "},"„":{"ha":619,"x_min":0,"x_max":0,"o":"m 339 239 l 339 -133 l 458 -133 l 596 239 z m 24 239 l 24 -133 l 143 -133 l 281 239 z "},"‟":{"ha":619,"x_min":0,"x_max":0,"o":"m 24 929 l 160 557 l 281 557 l 281 929 z m 339 929 l 476 557 l 596 557 l 596 929 z "},"†":{"ha":596,"x_min":0,"x_max":0,"o":"m 310 929 l 276 929 l 233 678 l 60 625 l 233 571 l 275 0 l 311 0 l 356 571 l 526 625 l 354 678 z "},"‡":{"ha":606,"x_min":0,"x_max":0,"o":"m 313 929 l 281 929 l 236 718 l 68 682 l 65 653 l 235 603 l 235 326 l 67 283 l 67 256 l 236 213 l 281 -1 l 313 -1 l 354 213 l 526 256 l 526 283 l 356 326 l 356 601 l 526 646 l 526 674 l 354 717 z "},"•":{"ha":636,"x_min":0,"x_max":0,"o":"m 82 465 b 318 229 82 335 188 229 b 554 465 449 229 554 335 b 318 701 554 596 449 701 b 82 465 188 701 82 596 z "},"…":{"ha":1288,"x_min":0,"x_max":0,"o":"m 58 118 b 214 -15 58 33 128 -15 b 371 118 301 -15 371 33 b 214 254 371 204 301 254 b 58 118 128 254 58 204 z m 488 118 b 643 -15 488 33 557 -15 b 800 118 731 -15 800 33 b 643 254 800 204 731 254 b 488 118 557 254 488 204 z m 917 118 b 1072 -15 917 33 986 -15 b 1229 118 1160 -15 1229 33 b 1072 254 1229 204 1160 254 b 917 118 986 254 917 204 z "},"‰":{"ha":1888,"x_min":0,"x_max":0,"o":"m 356 961 b 58 722 157 961 58 888 b 356 482 58 556 157 482 b 651 722 553 482 651 556 b 356 961 651 888 553 961 z m 356 603 b 200 722 242 603 200 622 b 356 840 200 822 242 840 b 510 722 468 840 510 822 b 356 603 510 622 468 603 z m 944 981 l 194 -53 l 321 -53 l 1061 981 z m 914 458 b 617 219 715 458 617 385 b 914 -21 617 53 715 -21 b 1210 219 1111 -21 1210 53 b 914 458 1210 385 1111 458 z m 914 100 b 758 219 800 100 758 119 b 914 338 758 319 800 338 b 1068 219 1026 338 1068 319 b 914 100 1068 119 1026 100 z m 1535 458 b 1238 219 1336 458 1238 385 b 1535 -21 1238 53 1336 -21 b 1831 219 1732 -21 1831 53 b 1535 458 1831 385 1732 458 z m 1535 100 b 1379 219 1421 100 1379 119 b 1535 338 1379 319 1421 338 b 1689 219 1647 338 1689 319 b 1535 100 1689 119 1647 100 z "},"′":{"ha":308,"x_min":0,"x_max":0,"o":"m 93 929 l 10 557 l 139 557 l 315 929 z "},"″":{"ha":617,"x_min":0,"x_max":0,"o":"m 93 929 l 10 557 l 139 557 l 315 929 z m 401 929 l 318 557 l 447 557 l 624 929 z "},"‹":{"ha":340,"x_min":0,"x_max":0,"o":"m 282 551 l 282 683 l 40 510 l 40 383 l 282 219 l 282 349 l 125 451 z "},"›":{"ha":340,"x_min":0,"x_max":0,"o":"m 222 451 l 64 349 l 64 219 l 307 383 l 307 510 l 64 683 l 64 551 z "},"⁄":{"ha":393,"x_min":0,"x_max":0,"o":"m 521 981 l -229 -53 l -103 -53 l 638 981 z "},"⁰":{"ha":690,"x_min":0,"x_max":0,"o":"m 346 961 b 49 722 147 961 49 888 b 346 482 49 556 147 482 b 642 722 543 482 642 556 b 346 961 642 888 543 961 z m 346 603 b 190 722 232 603 190 622 b 346 840 190 822 232 840 b 500 722 458 840 500 822 b 346 603 500 622 458 603 z "},"⁴":{"ha":706,"x_min":0,"x_max":0,"o":"m 411 544 l 411 490 l 550 490 l 550 544 l 599 544 l 682 660 l 550 660 l 550 875 b 471 961 550 936 511 961 b 404 936 453 961 428 956 l 69 664 b 39 608 49 647 39 626 b 110 544 39 575 65 544 z m 411 660 l 329 660 b 250 657 294 660 269 658 b 313 703 265 668 288 682 l 364 744 b 414 788 386 763 403 776 b 411 728 413 772 411 757 z "},"⁵":{"ha":664,"x_min":0,"x_max":0,"o":"m 72 954 l 72 676 l 428 676 b 476 642 460 676 476 665 b 428 610 476 618 460 610 l 140 610 l 49 490 l 415 490 b 615 640 557 490 615 546 b 440 768 615 726 553 768 l 215 768 l 215 833 l 506 833 l 599 954 z "},"⁶":{"ha":714,"x_min":0,"x_max":0,"o":"m 322 833 l 535 833 l 628 954 l 329 954 b 49 726 167 954 49 861 b 375 482 49 557 160 482 b 665 639 525 482 665 513 b 490 768 665 724 597 768 l 197 768 b 322 833 218 808 264 833 z m 479 676 b 529 644 514 676 529 665 b 382 603 529 617 503 603 b 197 676 275 603 214 614 z "},"⁷":{"ha":625,"x_min":0,"x_max":0,"o":"m 576 838 b 600 892 594 858 600 875 b 521 954 600 926 574 954 l 119 954 l 28 833 l 281 833 b 411 836 353 833 385 833 b 326 746 393 821 374 800 l 97 490 l 279 490 z "},"⁸":{"ha":700,"x_min":0,"x_max":0,"o":"m 464 490 b 651 625 610 490 651 547 b 579 729 651 681 621 717 b 643 825 611 739 643 771 b 460 954 643 910 572 954 l 240 954 b 58 825 129 954 58 910 b 121 729 58 771 89 739 b 49 625 81 717 49 681 b 236 490 49 547 90 490 z m 464 672 b 508 640 496 672 508 663 b 464 610 508 619 496 610 l 236 610 b 192 640 206 610 192 619 b 236 672 192 663 206 672 z m 467 833 b 506 804 486 833 506 826 b 467 772 506 781 488 772 l 233 772 b 194 804 213 772 194 781 b 233 833 194 826 214 833 z "},"⁹":{"ha":714,"x_min":0,"x_max":0,"o":"m 183 610 l 92 490 l 385 490 b 665 732 546 490 665 582 b 339 961 665 886 553 961 b 49 804 188 961 49 932 b 222 675 49 719 117 675 b 517 686 451 675 482 681 b 392 610 496 643 453 610 z m 233 767 b 183 799 200 767 183 778 b 331 840 183 826 211 840 b 515 774 439 840 501 833 b 233 767 475 769 447 767 z "},"₀":{"ha":690,"x_min":0,"x_max":0,"o":"m 346 458 b 49 219 147 458 49 385 b 346 -21 49 53 147 -21 b 642 219 543 -21 642 53 b 346 458 642 385 543 458 z m 346 100 b 190 219 232 100 190 119 b 346 338 190 319 232 338 b 500 219 458 338 500 319 b 346 100 500 119 458 100 z "},"₁":{"ha":349,"x_min":0,"x_max":0,"o":"m 28 331 l 140 331 l 140 -12 l 285 -12 l 285 451 l 114 451 z "},"₂":{"ha":689,"x_min":0,"x_max":0,"o":"m 72 331 l 449 331 b 497 299 481 331 497 322 b 449 265 497 275 481 265 l 228 265 b 53 138 114 265 53 224 l 53 -12 l 547 -12 l 640 107 l 192 107 l 192 139 b 240 174 192 163 208 174 l 461 174 b 636 307 581 174 636 228 b 436 451 636 394 578 451 l 164 451 z "},"₃":{"ha":672,"x_min":0,"x_max":0,"o":"m 26 -12 l 435 -12 b 624 122 581 -12 624 44 b 551 226 624 178 592 214 b 614 322 582 236 614 268 b 431 451 614 407 543 451 l 140 451 l 49 331 l 438 331 b 478 301 457 331 478 324 b 438 269 478 278 458 269 l 232 269 l 157 169 l 435 169 b 479 138 467 169 479 160 b 435 107 479 117 467 107 l 117 107 z "},"₄":{"ha":706,"x_min":0,"x_max":0,"o":"m 411 42 l 411 -12 l 550 -12 l 550 42 l 599 42 l 682 157 l 550 157 l 550 372 b 471 458 550 433 511 458 b 404 433 453 458 428 453 l 69 161 b 39 106 49 144 39 124 b 110 42 39 72 65 42 z m 411 157 l 329 157 b 250 154 294 157 269 156 b 313 200 265 165 288 179 l 364 242 b 414 285 386 260 403 274 b 411 225 413 269 411 254 z "},"₅":{"ha":664,"x_min":0,"x_max":0,"o":"m 72 451 l 72 174 l 428 174 b 476 139 460 174 476 163 b 428 107 476 115 460 107 l 140 107 l 49 -12 l 415 -12 b 615 138 557 -12 615 43 b 440 265 615 224 553 265 l 215 265 l 215 331 l 506 331 l 599 451 z "},"₆":{"ha":714,"x_min":0,"x_max":0,"o":"m 322 331 l 535 331 l 628 451 l 329 451 b 49 224 167 451 49 358 b 375 -21 49 54 160 -21 b 665 136 525 -21 665 10 b 490 265 665 221 597 265 l 197 265 b 322 331 218 306 264 331 z m 479 174 b 529 142 514 174 529 163 b 382 100 529 114 503 100 b 197 174 275 100 214 111 z "},"₇":{"ha":625,"x_min":0,"x_max":0,"o":"m 576 335 b 600 389 594 356 600 372 b 521 451 600 424 574 451 l 119 451 l 28 331 l 281 331 b 411 333 353 331 385 331 b 326 243 393 318 374 297 l 97 -12 l 279 -12 z "},"₈":{"ha":700,"x_min":0,"x_max":0,"o":"m 464 -12 b 651 122 610 -12 651 44 b 579 226 651 178 621 214 b 643 322 611 236 643 268 b 460 451 643 407 572 451 l 240 451 b 58 322 129 451 58 407 b 121 226 58 268 89 236 b 49 122 81 214 49 178 b 236 -12 49 44 90 -12 z m 464 169 b 508 138 496 169 508 160 b 464 107 508 117 496 107 l 236 107 b 192 138 206 107 192 117 b 236 169 192 160 206 169 z m 467 331 b 506 301 486 331 506 324 b 467 269 506 278 488 269 l 233 269 b 194 301 213 269 194 278 b 233 331 194 324 214 331 z "},"₉":{"ha":714,"x_min":0,"x_max":0,"o":"m 183 107 l 92 -12 l 385 -12 b 665 229 546 -12 665 79 b 339 458 665 383 553 458 b 49 301 188 458 49 429 b 222 172 49 217 117 172 b 517 183 451 172 482 178 b 392 107 496 140 453 107 z m 233 264 b 183 296 200 264 183 275 b 331 338 183 324 211 338 b 515 271 439 338 501 331 b 233 264 475 267 447 264 z "},"€":{"ha":1235,"x_min":0,"x_max":0,"o":"m 10 504 l 124 504 b 122 474 122 494 122 483 b 124 435 122 460 122 447 l 72 435 l 10 343 l 142 343 b 682 0 206 140 414 0 l 965 0 l 1150 239 l 682 239 b 447 343 578 239 493 278 l 747 343 l 819 435 l 411 435 b 410 461 410 443 410 453 b 414 504 410 476 411 490 l 872 504 l 943 597 l 460 597 b 682 688 508 653 588 688 l 1015 688 l 1203 929 l 682 929 b 139 597 411 929 200 799 l 72 597 z "},"℗":{"ha":1090,"x_min":0,"x_max":0,"o":"m 794 526 b 601 686 794 621 724 686 l 411 686 l 349 608 l 608 608 b 699 526 667 608 699 576 b 608 444 699 478 667 444 l 322 444 l 322 242 l 411 242 l 411 369 l 601 369 b 794 526 724 369 794 432 z m 61 465 b 542 -15 61 200 276 -15 b 1022 465 807 -15 1022 200 b 542 946 1022 732 807 946 b 61 465 276 946 61 732 z m 118 464 b 544 893 118 699 307 893 b 969 464 779 893 969 699 b 544 39 969 228 779 39 b 118 464 307 39 118 228 z "},"™":{"ha":803,"x_min":0,"x_max":0,"o":"m 339 929 l 47 929 l 47 846 l 151 846 l 151 540 l 236 540 l 236 846 l 339 846 z m 739 929 l 661 929 l 561 683 l 460 929 l 382 929 l 382 540 l 468 540 l 468 685 l 528 540 l 593 540 l 653 686 l 653 540 l 739 540 z "},"⅓":{"ha":1282,"x_min":0,"x_max":0,"o":"m 58 833 l 171 833 l 171 490 l 315 490 l 315 954 l 144 954 z m 833 981 l 83 -53 l 210 -53 l 950 981 z m 626 -12 l 1035 -12 b 1224 122 1181 -12 1224 44 b 1151 226 1224 178 1192 214 b 1214 322 1182 236 1214 268 b 1031 451 1214 407 1143 451 l 740 451 l 649 331 l 1038 331 b 1078 301 1057 331 1078 324 b 1038 269 1078 278 1058 269 l 832 269 l 757 169 l 1035 169 b 1079 138 1067 169 1079 160 b 1035 107 1079 117 1067 107 l 717 107 z "},"⅔":{"ha":1439,"x_min":0,"x_max":0,"o":"m 78 833 l 454 833 b 503 801 486 833 503 825 b 454 768 503 778 486 768 l 233 768 b 58 640 119 768 58 726 l 58 490 l 553 490 l 646 610 l 197 610 l 197 642 b 246 676 197 665 214 676 l 467 676 b 642 810 586 676 642 731 b 442 954 642 897 583 954 l 169 954 z m 1031 981 l 281 -53 l 407 -53 l 1147 981 z m 785 -12 l 1193 -12 b 1382 122 1339 -12 1382 44 b 1310 226 1382 178 1350 214 b 1372 322 1340 236 1372 268 b 1189 451 1372 407 1301 451 l 899 451 l 807 331 l 1196 331 b 1236 301 1215 331 1236 324 b 1196 269 1236 278 1217 269 l 990 269 l 915 169 l 1193 169 b 1238 138 1225 169 1238 160 b 1193 107 1238 117 1225 107 l 875 107 z "},"⅛":{"ha":1336,"x_min":0,"x_max":0,"o":"m 58 833 l 171 833 l 171 490 l 315 490 l 315 954 l 144 954 z m 860 981 l 110 -53 l 236 -53 l 976 981 z m 1090 -12 b 1278 122 1236 -12 1278 44 b 1206 226 1278 178 1247 214 b 1269 322 1238 236 1269 268 b 1086 451 1269 407 1199 451 l 867 451 b 685 322 756 451 685 407 b 747 226 685 268 715 236 b 675 122 707 214 675 178 b 863 -12 675 44 717 -12 z m 1090 169 b 1135 138 1122 169 1135 160 b 1090 107 1135 117 1122 107 l 863 107 b 818 138 832 107 818 117 b 863 169 818 160 832 169 z m 1093 331 b 1132 301 1113 331 1132 324 b 1093 269 1132 278 1114 269 l 860 269 b 821 301 839 269 821 278 b 860 331 821 324 840 331 z "},"⅜":{"ha":1517,"x_min":0,"x_max":0,"o":"m 58 490 l 467 490 b 656 625 613 490 656 547 b 583 729 656 681 624 717 b 646 825 614 739 646 771 b 463 954 646 910 575 954 l 172 954 l 81 833 l 469 833 b 510 804 489 833 510 826 b 469 772 510 781 490 772 l 264 772 l 189 672 l 467 672 b 511 640 499 672 511 663 b 467 610 511 619 499 610 l 149 610 z m 1067 981 l 317 -53 l 443 -53 l 1183 981 z m 1271 -12 b 1458 122 1417 -12 1458 44 b 1386 226 1458 178 1428 214 b 1450 322 1418 236 1450 268 b 1267 451 1450 407 1379 451 l 1047 451 b 865 322 936 451 865 407 b 928 226 865 268 896 236 b 856 122 888 214 856 178 b 1043 -12 856 44 897 -12 z m 1271 169 b 1315 138 1303 169 1315 160 b 1271 107 1315 117 1303 107 l 1043 107 b 999 138 1013 107 999 117 b 1043 169 999 160 1013 169 z m 1274 331 b 1313 301 1293 331 1313 324 b 1274 269 1313 278 1294 269 l 1040 269 b 1001 301 1019 269 1001 278 b 1040 331 1001 324 1021 331 z "},"⅝":{"ha":1474,"x_min":0,"x_max":0,"o":"m 82 954 l 82 676 l 438 676 b 486 642 469 676 486 665 b 438 610 486 618 469 610 l 150 610 l 58 490 l 425 490 b 625 640 567 490 625 546 b 450 768 625 726 563 768 l 225 768 l 225 833 l 515 833 l 608 954 z m 1024 981 l 274 -53 l 400 -53 l 1140 981 z m 1228 -12 b 1415 122 1374 -12 1415 44 b 1343 226 1415 178 1385 214 b 1407 322 1375 236 1407 268 b 1224 451 1407 407 1336 451 l 1004 451 b 822 322 893 451 822 407 b 885 226 822 268 853 236 b 813 122 844 214 813 178 b 1000 -12 813 44 854 -12 z m 1228 169 b 1272 138 1260 169 1272 160 b 1228 107 1272 117 1260 107 l 1000 107 b 956 138 969 107 956 117 b 1000 169 956 160 969 169 z m 1231 331 b 1269 301 1250 331 1269 324 b 1231 269 1269 278 1251 269 l 997 269 b 958 301 976 269 958 278 b 997 331 958 324 978 331 z "},"⅞":{"ha":1364,"x_min":0,"x_max":0,"o":"m 607 838 b 631 892 625 858 631 875 b 551 954 631 926 604 954 l 150 954 l 58 833 l 311 833 b 442 836 383 833 415 833 b 357 746 424 821 404 800 l 128 490 l 310 490 z m 914 981 l 164 -53 l 290 -53 l 1031 981 z m 1118 -12 b 1306 122 1264 -12 1306 44 b 1233 226 1306 178 1275 214 b 1297 322 1265 236 1297 268 b 1114 451 1297 407 1226 451 l 894 451 b 713 322 783 451 713 407 b 775 226 713 268 743 236 b 703 122 735 214 703 178 b 890 -12 703 44 744 -12 z m 1118 169 b 1163 138 1150 169 1163 160 b 1118 107 1163 117 1150 107 l 890 107 b 846 138 860 107 846 117 b 890 169 846 160 860 169 z m 1121 331 b 1160 301 1140 331 1160 324 b 1121 269 1160 278 1142 269 l 888 269 b 849 301 867 269 849 278 b 888 331 849 324 868 331 z "},"−":{"ha":874,"x_min":0,"x_max":0,"o":"m 817 550 l 58 550 l 58 394 l 817 394 z "},"≈":{"ha":788,"x_min":0,"x_max":0,"o":"m 531 478 b 724 568 590 478 653 497 l 724 796 b 551 685 661 714 604 685 b 246 786 443 685 347 786 b 56 694 189 786 126 768 l 56 467 b 228 581 117 549 174 581 b 531 478 329 581 428 478 z m 535 149 b 728 239 594 149 657 168 l 728 467 b 556 356 665 385 608 356 b 250 457 447 356 351 457 b 60 365 193 457 131 439 l 60 138 b 232 251 121 219 178 251 b 535 149 333 251 432 149 z "},"≠":{"ha":874,"x_min":0,"x_max":0,"o":"m 817 733 l 693 733 l 869 981 l 753 981 l 574 733 l 58 733 l 58 578 l 461 578 l 307 365 l 58 365 l 58 210 l 194 210 l 4 -53 l 131 -53 l 318 210 l 817 210 l 817 365 l 429 365 l 582 578 l 817 578 z "},"≤":{"ha":849,"x_min":0,"x_max":0,"o":"m 792 244 l 307 468 l 792 693 l 792 863 l 108 543 b 58 468 74 526 58 499 b 108 394 58 439 74 410 l 792 75 z m 817 -3 l 58 -3 l 58 -158 l 817 -158 z "},"≥":{"ha":849,"x_min":0,"x_max":0,"o":"m 58 75 l 742 394 b 792 468 775 410 792 439 b 742 543 792 499 775 526 l 58 863 l 58 693 l 543 468 l 58 244 z m 817 -3 l 58 -3 l 58 -158 l 817 -158 z "},"§":{"ha":1338,"x_min":0,"x_max":0,"o":"m 443 558 b 344 624 376 558 344 576 b 443 688 344 671 376 688 l 1088 688 l 1272 929 l 465 929 b 67 640 183 929 67 815 b 136 460 67 568 89 506 b 69 286 90 418 69 360 b 418 19 69 126 179 19 l 924 19 b 1022 -47 992 19 1022 0 b 924 -115 1022 -96 992 -115 l 221 -115 l 36 -354 l 901 -354 b 1300 -50 1185 -354 1300 -240 b 1233 121 1300 22 1278 79 b 1297 304 1276 164 1297 225 b 949 558 1297 474 1175 558 z m 446 204 b 347 269 379 204 347 222 b 440 374 347 315 378 374 l 921 374 b 1019 307 989 374 1019 354 b 924 204 1019 260 989 204 z "}}}
